<svg viewBox="0 0 32 32" xmlns="http://www.w3.org/2000/svg">
  <defs>
    <!-- Gradient for the cloud -->
    <linearGradient id="cloudGradient" x1="0%" y1="0%" x2="100%" y2="100%">
      <stop offset="0%" style="stop-color:#4FC3F7;stop-opacity:1" />
      <stop offset="100%" style="stop-color:#29B6F6;stop-opacity:1" />
    </linearGradient>
    
    <!-- Gradient for the neural network nodes -->
    <linearGradient id="nodeGradient" x1="0%" y1="0%" x2="100%" y2="100%">
      <stop offset="0%" style="stop-color:#FFA726;stop-opacity:1" />
      <stop offset="100%" style="stop-color:#FF7043;stop-opacity:1" />
    </linearGradient>
  </defs>
  
  <!-- Cloud shape -->
  <path d="M8 20 C6 20, 4 18, 4 16 C4 14, 6 12, 8 12 C9 10, 11 9, 13 10 C15 8, 17 9, 18 12 C20 12, 22 14, 22 16 C22 18, 20 20, 18 20 Z" 
        fill="url(#cloudGradient)"/>
  
  <!-- Simplified neural network -->
  <!-- Input nodes -->
  <circle cx="8" cy="15" r="1.5" fill="url(#nodeGradient)"/>
  <circle cx="8" cy="18" r="1.5" fill="url(#nodeGradient)"/>
  
  <!-- Hidden node -->
  <circle cx="13" cy="16.5" r="1.5" fill="url(#nodeGradient)"/>
  
  <!-- Output node -->
  <circle cx="18" cy="16.5" r="1.5" fill="url(#nodeGradient)"/>
  
  <!-- Connections -->
  <line x1="9.5" y1="15" x2="11.5" y2="16.5" stroke="#FF7043" stroke-width="1.5" opacity="0.9"/>
  <line x1="9.5" y1="18" x2="11.5" y2="16.5" stroke="#FF7043" stroke-width="1.5" opacity="0.9"/>
  <line x1="14.5" y1="16.5" x2="16.5" y2="16.5" stroke="#FF7043" stroke-width="2" opacity="1"/>
  

</svg>