<svg viewBox="0 0 32 32" xmlns="http://www.w3.org/2000/svg" width="32" height="32">
  <defs>
    <!-- Gradient for the cloud -->
    <linearGradient id="cloudGradient" x1="0%" y1="0%" x2="100%" y2="100%">
      <stop offset="0%" style="stop-color:#4FC3F7;stop-opacity:1" />
      <stop offset="100%" style="stop-color:#29B6F6;stop-opacity:1" />
    </linearGradient>
    
    <!-- Gradient for the neural network nodes -->
    <radialGradient id="nodeGradient" cx="50%" cy="50%" r="50%">
      <stop offset="0%" style="stop-color:#FFB74D;stop-opacity:1" />
      <stop offset="100%" style="stop-color:#FF8A65;stop-opacity:1" />
    </radialGradient>
  </defs>
  
  <!-- Background circle for better visibility -->
  <circle cx="16" cy="16" r="15" fill="#ffffff" opacity="0.9"/>
  
  <!-- Simplified cloud shape - more prominent -->
  <path d="M8 22 C6 22, 4 20, 4 18 C4 16, 6 14, 8 14 C9 12, 11 11, 13 12 C15 10, 17 11, 18 14 C20 14, 22 16, 22 18 C22 20, 20 22, 18 22 Z" 
        fill="url(#cloudGradient)" stroke="#1976D2" stroke-width="0.5"/>
  
  <!-- Simplified neural network - fewer nodes, bigger size -->
  <!-- Input nodes -->
  <circle cx="9" cy="17" r="2" fill="url(#nodeGradient)" stroke="#E65100" stroke-width="0.5"/>
  <circle cx="9" cy="20" r="2" fill="url(#nodeGradient)" stroke="#E65100" stroke-width="0.5"/>
  
  <!-- Output node -->
  <circle cx="17" cy="18.5" r="2" fill="url(#nodeGradient)" stroke="#E65100" stroke-width="0.5"/>
  
  <!-- Connections - thicker for visibility -->
  <line x1="11" y1="17" x2="15" y2="18.5" stroke="#D84315" stroke-width="2" opacity="0.8"/>
  <line x1="11" y1="20" x2="15" y2="18.5" stroke="#D84315" stroke-width="2" opacity="0.8"/>
</svg>