<?xml version="1.0" encoding="UTF-8" standalone="no"?>
<svg
   viewBox="0 0 104.03326 26.426069"
   version="1.1"
   id="svg20"
   width="104.03326"
   height="26.426069"
   sodipodi:docname="logo-title.svg"
   inkscape:version="1.4.2 (ebf0e940d0, 2025-05-08)"
   xmlns:inkscape="http://www.inkscape.org/namespaces/inkscape"
   xmlns:sodipodi="http://sodipodi.sourceforge.net/DTD/sodipodi-0.dtd"
   xmlns:xlink="http://www.w3.org/1999/xlink"
   xmlns="http://www.w3.org/2000/svg"
   xmlns:svg="http://www.w3.org/2000/svg">
  <sodipodi:namedview
     id="namedview1"
     pagecolor="#ffffff"
     bordercolor="#666666"
     borderopacity="1.0"
     inkscape:showpageshadow="2"
     inkscape:pageopacity="0.0"
     inkscape:pagecheckerboard="0"
     inkscape:deskcolor="#d1d1d1"
     showgrid="false"
     inkscape:zoom="21.638554"
     inkscape:cx="13.88725"
     inkscape:cy="14.511136"
     inkscape:window-width="1920"
     inkscape:window-height="1011"
     inkscape:window-x="1920"
     inkscape:window-y="32"
     inkscape:window-maximized="1"
     inkscape:current-layer="svg20" />
  <defs
     id="defs6">
    <!-- Gradient for the cloud -->
    <linearGradient
       id="cloudGradient"
       x1="11.208901"
       y1="3.8435206"
       x2="44.835602"
       y2="37.470222"
       gradientTransform="matrix(1.3382222,0,0,0.74726004,-15,-2.8721094)"
       gradientUnits="userSpaceOnUse">
      <stop
         offset="0%"
         style="stop-color:#4FC3F7;stop-opacity:1"
         id="stop1" />
      <stop
         offset="100%"
         style="stop-color:#29B6F6;stop-opacity:1"
         id="stop2" />
    </linearGradient>
    <!-- Gradient for the neural network nodes -->
    <linearGradient
       id="nodeGradient"
       x1="0"
       y1="0"
       x2="1"
       y2="1">
      <stop
         offset="0%"
         style="stop-color:#FFA726;stop-opacity:1"
         id="stop3" />
      <stop
         offset="100%"
         style="stop-color:#FF7043;stop-opacity:1"
         id="stop4" />
    </linearGradient>
    <!-- Gradient for the text -->
    <linearGradient
       id="textGradient"
       x1="31.768194"
       y1="15.24033"
       x2="60.205563"
       y2="15.24033"
       gradientTransform="matrix(2.3994616,0,0,0.41676016,-43.990176,-3.6764327)"
       gradientUnits="userSpaceOnUse">
      <stop
         offset="0%"
         style="stop-color:#37474F;stop-opacity:1"
         id="stop5" />
      <stop
         offset="100%"
         style="stop-color:#546E7A;stop-opacity:1"
         id="stop6" />
    </linearGradient>
    <linearGradient
       xlink:href="#nodeGradient"
       id="linearGradient20"
       x1="22.5"
       y1="12.5"
       x2="27.5"
       y2="17.5"
       gradientUnits="userSpaceOnUse"
       gradientTransform="translate(9.0119977,-5.5068599)" />
    <linearGradient
       xlink:href="#nodeGradient"
       id="linearGradient21"
       x1="22.5"
       y1="18.5"
       x2="27.5"
       y2="23.5"
       gradientUnits="userSpaceOnUse"
       gradientTransform="translate(8.5545047,-1.3894197)" />
    <linearGradient
       xlink:href="#nodeGradient"
       id="linearGradient22"
       x1="34.5"
       y1="10.5"
       x2="39.5"
       y2="15.5"
       gradientUnits="userSpaceOnUse"
       gradientTransform="translate(-25.300003,-4.9186542)" />
    <linearGradient
       xlink:href="#nodeGradient"
       id="linearGradient23"
       x1="34.5"
       y1="15.5"
       x2="39.5"
       y2="20.5"
       gradientUnits="userSpaceOnUse"
       gradientTransform="translate(-25.234647,-3.5461741)" />
    <linearGradient
       xlink:href="#nodeGradient"
       id="linearGradient24"
       x1="34.5"
       y1="20.5"
       x2="39.5"
       y2="25.5"
       gradientUnits="userSpaceOnUse"
       gradientTransform="translate(-25.169291,-2.500475)" />
    <linearGradient
       xlink:href="#nodeGradient"
       id="linearGradient25"
       x1="47.5"
       y1="15.5"
       x2="52.5"
       y2="20.5"
       gradientUnits="userSpaceOnUse"
       gradientTransform="translate(-28.11032,-3.6768865)" />
    <linearGradient
       inkscape:collect="always"
       xlink:href="#linearGradient9"
       id="linearGradient10"
       x1="24.841068"
       y1="85.536438"
       x2="24.841068"
       y2="98.243286"
       gradientUnits="userSpaceOnUse"
       gradientTransform="matrix(0.60769306,0,0,0.60769306,-3.2426501,-35.999522)" />
    <linearGradient
       id="linearGradient9"
       inkscape:collect="always">
      <stop
         style="stop-color:#aaffcc;stop-opacity:1;"
         offset="0"
         id="stop9" />
      <stop
         style="stop-color:#aaffcc;stop-opacity:0.47949219;"
         offset="1"
         id="stop10" />
    </linearGradient>
    <linearGradient
       inkscape:collect="always"
       xlink:href="#linearGradient1"
       id="linearGradient2"
       x1="329.47198"
       y1="86.105309"
       x2="329.47198"
       y2="382.19498"
       gradientUnits="userSpaceOnUse" />
    <linearGradient
       id="linearGradient1"
       inkscape:collect="always">
      <stop
         style="stop-color:#eeaaff;stop-opacity:1;"
         offset="0"
         id="stop1-5" />
      <stop
         style="stop-color:#eeaaff;stop-opacity:0.4975805;"
         offset="1"
         id="stop2-9" />
    </linearGradient>
    <linearGradient
       inkscape:collect="always"
       xlink:href="#linearGradient5"
       id="linearGradient6"
       x1="32.022072"
       y1="98.248047"
       x2="43.305946"
       y2="98.248047"
       gradientUnits="userSpaceOnUse"
       gradientTransform="matrix(0.60769306,0,0,0.60769306,-3.2426501,-35.999522)" />
    <linearGradient
       id="linearGradient5"
       inkscape:collect="always">
      <stop
         style="stop-color:#eeaaff;stop-opacity:1;"
         offset="0"
         id="stop5-2" />
      <stop
         style="stop-color:#eeaaff;stop-opacity:0.49858889;"
         offset="1"
         id="stop6-2" />
    </linearGradient>
    <linearGradient
       inkscape:collect="always"
       xlink:href="#linearGradient3"
       id="linearGradient4"
       x1="39.221306"
       y1="88.797112"
       x2="39.221306"
       y2="83.457466"
       gradientUnits="userSpaceOnUse"
       gradientTransform="matrix(0.60769306,0,0,0.60769306,-3.2426501,-35.999522)" />
    <linearGradient
       id="linearGradient3"
       inkscape:collect="always">
      <stop
         style="stop-color:#eeaaff;stop-opacity:1;"
         offset="0"
         id="stop3-8" />
      <stop
         style="stop-color:#eeaaff;stop-opacity:0.50012803;"
         offset="1"
         id="stop4-9" />
    </linearGradient>
    <linearGradient
       inkscape:collect="always"
       xlink:href="#linearGradient7"
       id="linearGradient8"
       x1="34.045303"
       y1="90.415695"
       x2="7.2431412"
       y2="90.415695"
       gradientUnits="userSpaceOnUse"
       gradientTransform="matrix(0.60769306,0,0,0.60769306,-3.2426501,-35.999522)" />
    <linearGradient
       id="linearGradient7"
       inkscape:collect="always">
      <stop
         style="stop-color:#eeaaff;stop-opacity:1;"
         offset="0"
         id="stop7" />
      <stop
         style="stop-color:#eeaaff;stop-opacity:0.8;"
         offset="0.71547782"
         id="stop11" />
      <stop
         style="stop-color:#eeaaff;stop-opacity:0.49961919;"
         offset="1"
         id="stop8" />
    </linearGradient>
  </defs>
  <!-- Cloud shape representing "as-a-Service" -->
  <!-- Neural network representation inside cloud -->
  <!-- Input layer -->
  <!-- Hidden layer -->
  <!-- Output layer -->
  <!-- Connections -->
  <!-- Text -->
  <text
     x="31.009823"
     y="14.323567"
     font-family="Arial, sans-serif"
     font-size="16px"
     font-weight="bold"
     fill="url(#textGradient)"
     id="text18"
     style="fill:url(#textGradient)"><tspan
       id="tspan17"
       style="fill:url(#textGradient)">Lite</tspan><tspan
       fill="#4caf50"
       id="tspan18"
       style="fill:url(#textGradient)">MaaS</tspan></text>
  <text
     x="31.009823"
     y="26.323566"
     font-family="Arial, sans-serif"
     font-size="8px"
     fill="#78909c"
     opacity="0.8"
     id="text19">Models-as-a-Service</text>
  <!-- Subtle sparkles for "lite" feeling -->
  <text
     xml:space="preserve"
     style="font-style:normal;font-variant:normal;font-weight:normal;font-stretch:normal;font-size:0.438144px;font-family:'Red Hat Mono';-inkscape-font-specification:'Red Hat Mono';text-align:start;writing-mode:lr-tb;direction:ltr;text-anchor:start;fill:#000000;fill-opacity:1;stroke-width:0.148969"
     x="9.4541883"
     y="19.069487"
     id="text14"><tspan
       sodipodi:role="line"
       id="tspan14"
       style="fill:#000000;stroke-width:0.148969"
       x="9.4541883"
       y="19.069487" /></text>
  <path
     style="fill:#000000;stroke-width:0.137696"
     d="M 4.402603,26.35009 C 4.0678902,26.289318 3.9162729,26.239175 3.6202452,26.091206 3.0921522,25.827244 2.625906,25.354215 2.3485633,24.801037 2.1822248,24.469265 2.1076145,24.236445 1.9995843,23.712063 1.8779042,23.121426 1.7937229,22.901538 1.6364093,22.763414 1.4846305,22.630149 1.3822387,22.600596 1.1497224,22.622938 0.90617221,22.646333 0.77153925,22.754844 0.63962685,23.034039 0.51862897,23.290132 0.41880122,23.352243 0.25104382,23.275809 0.08419475,23.199775 0.04260674,22.887081 0.14636558,22.488726 0.39218395,21.544961 1.4064806,20.927598 2.3732444,21.133308 c 0.4120133,0.08766 0.6514525,0.219996 0.9615682,0.531414 0.3262772,0.327645 0.4841487,0.626401 0.6368995,1.205263 0.1933705,0.732804 0.4010469,0.983662 0.8143386,0.983662 0.2224609,0 0.3548222,-0.04734 0.4902394,-0.175369 0.2409378,-0.22778 0.3172012,-0.502347 0.4423432,-1.592555 0.050669,-0.441363 0.1081321,-0.858334 0.1277108,-0.9266 0.019589,-0.06826 0.030192,-0.129521 0.023594,-0.13612 -0.00658,-0.0065 -0.06865,0.01169 -0.1378861,0.0406 -0.2685249,0.112199 -0.7604151,0.17631 -1.196849,0.155999 C 3.6637986,21.17905 2.9384005,20.853745 2.3310762,20.231168 1.4498507,19.327812 1.213292,18.069709 1.6627113,16.676566 c 0.1326602,-0.41123 0.3506829,-0.834065 0.7567259,-1.467601 0.1641692,-0.256147 0.3753919,-0.62479 0.4693835,-0.819204 0.1628581,-0.336862 0.1708919,-0.368186 0.1708919,-0.666326 0,-0.278392 -0.010714,-0.329108 -0.097735,-0.460531 -0.2861714,-0.432435 -0.8977697,-0.479302 -1.3034053,-0.09988 -0.1941624,0.181618 -0.3354693,0.209337 -0.4781537,0.09381 -0.068317,-0.05532 -0.084364,-0.104711 -0.086006,-0.264732 -0.00621,-0.603913 0.7412756,-1.300202 1.5818421,-1.473519 0.3522925,-0.07264 0.9205946,-0.07027 1.2125489,0.0051 0.7156829,0.18465 1.2379042,0.716146 1.4282846,1.453646 0.034867,0.135079 0.055868,0.376017 0.055576,0.637556 -8.339e-4,0.727396 -0.1516809,1.253334 -0.637843,2.223799 -0.4632977,0.924821 -0.6034287,1.330595 -0.603901,1.74869 -6.758e-4,0.567 0.26174,0.91546 0.6942355,0.921983 0.3586281,0.0053 0.6347947,-0.251438 0.7687046,-0.714898 C 5.7905286,17.113781 5.8630058,16.890811 5.9809103,16.603737 6.2367615,15.980788 6.7285178,15.211578 7.4491021,14.30717 7.9189203,13.717502 8.1474379,13.355714 8.1685847,13.16809 8.1864197,13.009861 8.1828287,13.003621 7.9001829,12.701674 7.5154947,12.290747 7.3447235,12.080196 7.149807,11.776539 6.4653741,10.710277 6.1262311,9.5632629 6.0779892,8.1515658 6.0275025,6.6739352 6.3147234,5.3066703 6.9543085,3.9801153 7.9889701,1.8341406 9.6073807,0.41520054 11.402617,0.08006691 c 0.487214,-0.09095174 1.368172,-0.05824914 1.840673,0.06831725 1.048846,0.28096409 1.973035,0.87902054 2.745546,1.77668414 0.956348,1.1112845 1.626333,2.4779494 1.954041,3.985939 0.165599,0.7620208 0.199033,1.0990357 0.195178,1.9673221 -0.003,0.6893111 -0.0167,0.8756959 -0.09739,1.3315624 -0.236894,1.3380942 -0.776397,2.4525712 -1.632452,3.3722292 -0.416484,0.447431 -0.423378,0.47116 -0.239424,0.82408 0.140279,0.269129 0.285035,0.470511 0.850518,1.183231 0.51078,0.643777 0.812513,1.079687 1.103583,1.594322 0.146735,0.25944 0.313792,0.49206 0.476048,0.662872 0.363639,0.382817 0.606594,0.928507 0.668803,1.50217 0.01947,0.179418 0.06991,0.228646 0.204245,0.199287 0.431642,-0.09434 0.629258,-0.329083 0.67919,-0.8068 0.04106,-0.392872 -0.08831,-0.827686 -0.479369,-1.611132 -0.649118,-1.300443 -0.854746,-2.033985 -0.779171,-2.779594 0.05525,-0.545117 0.261665,-0.991 0.623197,-1.346203 0.386078,-0.379316 0.847245,-0.544055 1.523027,-0.544055 0.461068,0 0.791293,0.07093 1.164812,0.250196 0.617442,0.29633 1.139774,1.057783 0.983839,1.434241 -0.09269,0.223798 -0.322368,0.246017 -0.511178,0.04946 -0.49346,-0.513718 -1.329463,-0.322709 -1.45187,0.331721 -0.07238,0.386957 0.109251,0.86039 0.670255,1.747091 0.572169,0.904346 0.845128,1.574118 0.933143,2.289692 0.09767,0.794159 -0.09303,1.624977 -0.517286,2.25345 -0.324534,0.480759 -0.878557,0.938182 -1.393391,1.150443 -0.738805,0.3046 -1.59771,0.341807 -2.285845,0.09901 -0.08474,-0.0299 -0.161729,-0.0467 -0.17108,-0.03736 -0.01857,0.01857 0.07454,0.96693 0.157728,1.606308 0.112624,0.865563 0.367002,1.232457 0.849882,1.225793 0.178095,-0.0025 0.298872,-0.05238 0.451959,-0.186787 0.167307,-0.146899 0.264887,-0.362103 0.395563,-0.872388 0.193935,-0.757318 0.524685,-1.212525 1.087786,-1.497104 0.709775,-0.358704 1.621632,-0.234609 2.207498,0.300416 0.365903,0.33415 0.59559,0.825207 0.59699,1.276325 6.42e-4,0.214845 -0.01108,0.259394 -0.08865,0.336996 -0.09187,0.09187 -0.216227,0.113902 -0.309618,0.05481 -0.02911,-0.01844 -0.102896,-0.136331 -0.163947,-0.262004 -0.06105,-0.125671 -0.15326,-0.258987 -0.204902,-0.296256 -0.218443,-0.157647 -0.587885,-0.140846 -0.777929,0.03537 -0.158274,0.146758 -0.26844,0.430535 -0.381367,0.982361 -0.162348,0.793309 -0.399019,1.278936 -0.854551,1.753453 -0.547092,0.569901 -1.183244,0.859223 -1.99084,0.905446 -1.540233,0.08815 -2.875168,-0.941481 -3.47859,-2.683038 -0.0729,-0.210394 -0.156595,-0.496372 -0.185985,-0.635505 -0.02939,-0.139134 -0.05862,-0.258149 -0.06496,-0.264481 -0.0063,-0.0063 -0.08376,0.0801 -0.172068,0.192069 -0.355684,0.450986 -1.018232,0.868393 -1.654264,1.042189 -0.272281,0.0744 -0.388536,0.08061 -1.766945,0.09423 -0.927677,0.0092 -1.600138,-1.05e-4 -1.811214,-0.02499 -0.6140894,-0.0724 -1.2128127,-0.312459 -1.6844826,-0.675402 L 8.4059177,23.273362 8.2934273,23.627268 c -0.3977098,1.251242 -1.2200092,2.190911 -2.2699447,2.593939 -0.4443034,0.170549 -1.1028414,0.22292 -1.6208734,0.128898 z m 1.1344812,-0.586752 c 0.1461,-0.02862 0.4028462,-0.122936 0.6011253,-0.220775 0.6049686,-0.298523 1.1718622,-0.949811 1.4759482,-1.695672 0.1245272,-0.30544 0.3089531,-0.938458 0.3091236,-1.061027 5.11e-5,-0.03625 -0.064135,-0.200194 -0.1426414,-0.36432 C 7.6082726,22.061174 7.5473317,21.881949 7.460977,21.481409 7.400933,21.202896 7.395102,20.947363 7.395102,18.58924 V 16.002577 L 7.477558,15.84823 c 0.05364,-0.100371 0.1327327,-0.179989 0.2262483,-0.227698 0.1415628,-0.07222 0.2066247,-0.07335 4.2092017,-0.07335 3.598355,0 4.077943,0.0065 4.174466,0.05638 0.133641,0.0691 0.178783,0.179657 0.178783,0.437808 v 0.198006 h 0.601128 c 0.330619,0 0.601125,-0.0092 0.601125,-0.02022 0,-0.05712 -0.327164,-0.505175 -1.377518,-1.886545 -0.314497,-0.413614 -0.553371,-0.823054 -0.553371,-0.948506 0,-0.08159 -0.05024,-0.07448 -0.216796,0.03067 -0.97788,0.617309 -2.248255,0.907457 -3.597147,0.821578 -0.986919,-0.06283 -1.710066,-0.257455 -2.5214252,-0.67859 -0.2483933,-0.128929 -0.4545115,-0.229983 -0.4580431,-0.224564 -0.00352,0.0053 -0.034867,0.08663 -0.069625,0.180489 -0.088349,0.238533 -0.2668192,0.504267 -0.8388687,1.249057 -1.0038634,1.306987 -1.3141132,1.867021 -1.6108019,2.907641 -0.1621665,0.568799 -0.2789752,0.805881 -0.511889,1.03896 C 5.1831126,19.239638 4.4351008,19.230097 3.9442502,18.686791 3.5943318,18.299472 3.4734253,17.74485 3.6037986,17.12508 3.6828342,16.749353 3.8371091,16.36269 4.2042883,15.620039 4.8340951,14.346207 4.95623,13.641741 4.6747834,12.906276 4.4642813,12.356202 3.8434483,12.011352 3.1507821,12.05975 2.8639472,12.0798 2.3811196,12.220962 2.3590572,12.291237 c -0.00791,0.0253 0.064609,0.05083 0.1882658,0.06627 0.4158788,0.05195 0.8409686,0.362372 1.0165646,0.742322 0.064865,0.140354 0.078731,0.237691 0.078731,0.552877 0,0.597601 -0.1265592,0.908264 -0.7919562,1.944016 -0.5124452,0.79767 -0.7502202,1.38929 -0.8237814,2.049693 -0.059263,0.532048 0.032242,1.114179 0.2395822,1.524165 0.3369357,0.666241 0.879723,1.137545 1.5576901,1.352555 0.9725385,0.308428 1.9144553,0.119224 2.6093542,-0.524147 0.139666,-0.129307 0.2633288,-0.225713 0.2748091,-0.214234 0.011444,0.01145 -0.014998,0.181634 -0.058839,0.378117 -0.1918449,0.859767 -0.2934821,1.400794 -0.3469077,1.84662 -0.1120765,0.935207 -0.1378874,1.100131 -0.2088343,1.334098 -0.208324,0.687005 -0.6857171,1.092957 -1.2852962,1.092957 -0.354524,0 -0.6084494,-0.109947 -0.8761499,-0.379347 C 3.6760739,23.799363 3.5812167,23.614003 3.457829,23.130074 3.2098167,22.157363 2.748232,21.694838 2.0214023,21.690719 c -0.3096332,-0.0017 -0.6236272,0.08352 -0.7866929,0.213622 l -0.1058871,0.08449 0.1457265,0.02459 c 0.4681834,0.079 0.7298099,0.220929 0.9218858,0.500103 0.1617354,0.235073 0.2150041,0.387009 0.3341576,0.953088 0.1457701,0.692512 0.1668791,0.760602 0.3402666,1.097457 0.1865917,0.362503 0.6272904,0.819331 0.9539218,0.988828 0.5495683,0.285192 1.0298807,0.344223 1.7122987,0.210439 z m 14.3359428,-0.0024 c 0.414332,-0.09157 0.745595,-0.28254 1.097686,-0.632772 0.26561,-0.264213 0.34104,-0.367508 0.486076,-0.665647 0.143219,-0.294404 0.19193,-0.453418 0.293851,-0.959248 0.07323,-0.363413 0.159918,-0.683486 0.216379,-0.79889 0.173107,-0.353815 0.485563,-0.597237 0.838776,-0.653456 0.382012,-0.0608 0.398119,-0.09182 0.114938,-0.221473 -0.299339,-0.137043 -0.573297,-0.180927 -0.830674,-0.133063 -0.461057,0.08575 -0.816241,0.335643 -1.021008,0.718363 -0.05353,0.100019 -0.156709,0.384611 -0.229315,0.632404 -0.17212,0.587431 -0.294418,0.823528 -0.545411,1.052922 -0.279231,0.255201 -0.534101,0.348539 -0.894911,0.327727 -0.490153,-0.02829 -0.86344,-0.285773 -1.100955,-0.759428 -0.150644,-0.300417 -0.205282,-0.564957 -0.289092,-1.399662 -0.04226,-0.420789 -0.08224,-0.771279 -0.08886,-0.778866 -0.0065,-0.0076 -0.09225,0.03768 -0.190287,0.100595 -0.351535,0.225581 -0.739657,0.345625 -1.254468,0.388008 l -0.282347,0.02323 v 0.11803 c 0,0.437325 0.284635,1.473863 0.54833,1.996825 0.214947,0.426282 0.334539,0.589891 0.687239,0.940181 0.671437,0.666852 1.514294,0.909697 2.444048,0.704189 z m -6.25284,-2.252996 c 0.575453,-0.121919 0.972149,-0.34738 1.386867,-0.78823 0.194345,-0.206588 0.317017,-0.378726 0.420358,-0.589858 0.283506,-0.579213 0.270358,-0.423119 0.283643,-3.367693 l 0.01193,-2.632368 -3.872453,0.0093 -3.8724555,0.0093 v 2.53201 c 0,2.849299 -0.00292,2.812532 0.2732666,3.383751 0.3362979,0.69542 0.8215787,1.121989 1.5384462,1.352314 0.4001497,0.128565 0.5261597,0.137073 2.0864987,0.14089 1.179467,0.0029 1.546353,-0.0076 1.743955,-0.04937 z m 3.174347,-2.150004 c 0.920781,-0.19332 1.656828,-1.009037 1.855498,-2.056329 0.23096,-1.217525 -0.229839,-2.179964 -1.163292,-2.429683 -0.111224,-0.02975 -0.384313,-0.04891 -0.701312,-0.04917 l -0.519157,-4.18e-4 v 0.287797 0.287795 l 0.464507,0.01276 c 0.429597,0.01181 0.480541,0.02089 0.677863,0.120866 0.260926,0.132209 0.468049,0.360118 0.575623,0.63339 0.0671,0.170482 0.08097,0.277527 0.08086,0.624702 -1.05e-4,0.371678 -0.01245,0.454102 -0.109276,0.730248 -0.177527,0.50624 -0.439771,0.841825 -0.844714,1.080963 -0.159661,0.09429 -0.606965,0.228976 -0.760431,0.228976 -0.08126,0 -0.08444,0.01096 -0.08444,0.291453 v 0.291455 l 0.136621,-6.74e-4 c 0.07515,-4.19e-4 0.251381,-0.02472 0.391642,-0.05418 z m 3.679621,-0.831391 c 0.416934,-0.136754 0.722816,-0.328461 1.056518,-0.662155 0.336313,-0.336308 0.549558,-0.703415 0.675607,-1.163089 0.0688,-0.250886 0.07688,-0.353539 0.06172,-0.783286 -0.02137,-0.605362 -0.0999,-0.91858 -0.370662,-1.478222 -0.106634,-0.220413 -0.3443,-0.63847 -0.528142,-0.929014 -0.627026,-0.990957 -0.79645,-1.473169 -0.725285,-2.064291 0.06682,-0.555066 0.426881,-0.953404 0.965612,-1.068273 0.329601,-0.07027 0.350731,-0.07741 0.318068,-0.107389 -0.01792,-0.01645 -0.130959,-0.06753 -0.251182,-0.1135 -0.289328,-0.110628 -0.956759,-0.124355 -1.238686,-0.02547 -0.675441,0.236919 -1.066375,0.980945 -0.961072,1.829121 0.05901,0.47534 0.204992,0.883195 0.632941,1.768389 0.493295,1.020367 0.566596,1.236157 0.592211,1.743432 0.03007,0.595502 -0.06668,0.912333 -0.381326,1.248713 -0.212794,0.227495 -0.473228,0.354531 -0.786858,0.383817 -0.210178,0.01962 -0.246975,0.03371 -0.260273,0.0995 -0.101375,0.50176 -0.226255,0.893725 -0.36226,1.137064 -0.05678,0.101606 -0.07521,0.167728 -0.05087,0.182759 0.136452,0.08433 0.411707,0.119685 0.848873,0.109033 0.392092,-0.0095 0.523783,-0.02801 0.765071,-0.107146 z M 16.68346,20.171611 c 0.387441,-0.144962 0.662529,-0.530132 0.776664,-1.087466 0.09632,-0.470283 0.01084,-0.801935 -0.258264,-1.001555 -0.08723,-0.06472 -0.165535,-0.07806 -0.519155,-0.08846 l -0.416434,-0.01225 v 1.132524 1.132522 h 0.107925 c 0.05937,0 0.198526,-0.0339 0.309258,-0.07533 z m -3.849456,-6.520793 c 2.86937,-0.311144 4.746903,-2.602623 4.745897,-5.792245 -2.73e-4,-0.8538903 -0.08519,-1.4827244 -0.312006,-2.3102991 -0.594448,-2.1689653 -2.076832,-4.0717671 -3.606862,-4.62979995 -0.249196,-0.090887 -0.270128,-0.0930591 -0.374882,-0.0388861 -0.16875,0.0872646 -0.444525,0.33801175 -0.621477,0.56508275 -0.347992,0.4465473 -0.550691,0.9864069 -0.717792,1.911716 -0.06448,0.3570463 -0.138324,0.6258243 -0.241424,0.8787056 -0.08168,0.2003757 -0.168726,0.4196446 -0.193407,0.487264 -0.02467,0.067619 -0.05314,0.1086057 -0.06324,0.091079 -0.136388,-0.236605 -0.16766,-1.5453376 -0.04995,-2.0902668 0.164262,-0.7604161 0.491889,-1.4395988 0.940012,-1.94869291 l 0.153666,-0.1745755 -0.4721,0.0185901 C 10.752097,0.66842209 9.591772,1.2956974 8.5989363,2.46815 6.9679766,4.3941712 6.2859152,7.0454117 6.800278,9.4597241 7.0244336,10.511872 7.5199591,11.464451 8.1958905,12.142601 9.3374801,13.287934 11.048731,13.844395 12.83399,13.650806 Z M 11.65764,10.411595 C 11.056031,10.282133 10.49605,9.8933755 10.22251,9.4152782 10.089931,9.1835527 10.081052,9.0715954 10.184793,8.9397076 c 0.05873,-0.074653 0.107379,-0.095994 0.218936,-0.095994 0.127652,0 0.154416,0.016545 0.243272,0.1503404 0.41062,0.6183056 0.885552,0.8611438 1.615445,0.8259991 0.283562,-0.01366 0.384131,-0.035707 0.58506,-0.1283232 0.266889,-0.1230139 0.533374,-0.3473374 0.655595,-0.5518705 0.136908,-0.2291141 0.21578,-0.2961458 0.348456,-0.2961458 0.150198,0 0.301665,0.1370923 0.301665,0.2730354 0,0.150966 -0.129807,0.3644972 -0.387895,0.6380852 -0.443545,0.4701798 -0.875492,0.6597508 -1.542994,0.6771788 -0.23043,0.0059 -0.484543,-0.0031 -0.564694,-0.02041 z M 9.6146256,7.881238 C 9.1294568,7.6699799 9.0590869,6.761047 9.5017576,6.4234039 9.9485969,6.0825821 10.510793,6.460426 10.518108,7.1064755 10.524695,7.6861242 10.067289,8.0783435 9.6146256,7.881238 Z M 14.152259,7.8509487 C 14.040656,7.7945204 13.955936,7.7131024 13.880408,7.5896745 13.782258,7.4292721 13.770693,7.3793454 13.770693,7.116058 c 0,-0.2555615 0.01321,-0.3167812 0.100331,-0.4649814 0.128933,-0.2193309 0.284628,-0.3285879 0.497385,-0.3490309 0.228138,-0.021914 0.41065,0.060032 0.544159,0.2443332 0.307937,0.4250923 0.199634,1.1032382 -0.209527,1.3119774 -0.189118,0.096481 -0.349564,0.094326 -0.550776,-0.00743 z"
     id="path1"
     inkscape:label="octobean" />
  <path
     style="display:inline;fill:url(#linearGradient8);stroke-width:0.094175;stroke-dasharray:none"
     d="M 4.5909089,25.798712 C 4.2615273,25.747361 3.8608603,25.583054 3.6203633,25.400734 3.4368808,25.261639 3.1356461,24.946258 3.0111104,24.762874 2.8206253,24.482372 2.7148501,24.21887 2.6143416,23.774465 2.4015373,22.833531 2.3707497,22.739688 2.1946364,22.495116 2.0062857,22.233549 1.7413388,22.086055 1.3284198,22.012902 l -0.1694627,-0.03002 0.054053,-0.0429 c 0.186811,-0.14831 0.4713767,-0.229246 0.8027718,-0.228328 0.3639603,0.0011 0.6066962,0.09018 0.8500921,0.312272 0.2548433,0.232544 0.4108008,0.530248 0.5710669,1.090095 0.1293336,0.451798 0.2416256,0.686186 0.4260127,0.889229 0.2775703,0.305652 0.5553839,0.434955 0.9323574,0.433948 0.2530585,-6.75e-4 0.3692244,-0.02508 0.5656653,-0.118833 0.1929661,-0.09209 0.4499363,-0.34468 0.5690252,-0.559316 0.1823746,-0.328698 0.2318412,-0.538671 0.3567019,-1.514102 0.084125,-0.65715 0.1516614,-1.047389 0.2995559,-1.730747 0.1424088,-0.658005 0.1548729,-0.739128 0.1135253,-0.738837 -0.017312,1.08e-4 -0.1270485,0.08249 -0.243862,0.183037 C 6.0631603,20.296472 5.757342,20.466842 5.3458314,20.57683 5.1499469,20.62919 5.0739453,20.63695 4.7409407,20.63871 4.4571224,20.64021 4.3119063,20.63021 4.171001,20.5999 3.571714,20.4705 3.1401632,20.233889 2.7489459,19.8202 2.3910619,19.44176 2.186916,19.059557 2.0837682,18.574849 c -0.072339,-0.33993 -0.073089,-0.8806 -0.00167,-1.213774 0.1242958,-0.58 0.3394131,-1.051441 0.8574963,-1.879253 0.3788811,-0.605388 0.5820554,-0.999435 0.6486283,-1.257983 0.059094,-0.229511 0.084501,-0.725461 0.047285,-0.923292 C 3.5966228,13.0938 3.5025512,12.927864 3.3200535,12.744117 3.1204828,12.543177 2.8618497,12.405814 2.5842538,12.353324 c -0.1978553,-0.03741 -0.209505,-0.04215 -0.1882231,-0.07659 0.015413,-0.02491 0.2969323,-0.120148 0.4983402,-0.168552 0.1854656,-0.04457 0.624489,-0.03869 0.8078802,0.01084 0.7139601,0.192786 1.0954551,0.729982 1.0931481,1.539305 -9.849e-4,0.33982 -0.037119,0.529984 -0.183463,0.965084 -0.099245,0.295055 -0.1738197,0.466051 -0.5807772,1.331602 -0.3804126,0.809096 -0.4763655,1.135989 -0.4776645,1.627301 -9.849e-4,0.363605 0.031191,0.512606 0.1730784,0.802116 0.1613786,0.329275 0.4822615,0.600591 0.8151444,0.689227 0.1571336,0.04184 0.4114899,0.0404 0.5791361,-0.0033 0.2246303,-0.05851 0.4008459,-0.16616 0.6016086,-0.367529 0.2591749,-0.259952 0.3094146,-0.367234 0.5879197,-1.255418 0.2849905,-0.90886 0.5178166,-1.313709 1.5486191,-2.69281 0.6116086,-0.818268 0.7402434,-1.011851 0.831805,-1.251784 0.030217,-0.07915 0.062831,-0.144078 0.072485,-0.144265 0.00962,-1.81e-4 0.1942811,0.08813 0.4102627,0.196266 0.7890368,0.395035 1.3284585,0.560352 2.1573845,0.66118 0.382085,0.04648 1.403684,0.03972 1.754254,-0.01157 0.819977,-0.120026 1.471022,-0.335839 2.101978,-0.696771 0.165859,-0.09488 0.307524,-0.172501 0.314814,-0.172501 0.0074,0 0.02007,0.03639 0.02843,0.08087 0.03883,0.206971 0.260119,0.541871 1.052071,1.592196 0.512625,0.679867 0.802396,1.077187 0.86305,1.183362 0.013,0.02276 -0.107462,0.02886 -0.570278,0.02886 H 16.2885 l -0.01157,-0.203394 c -0.007,-0.12487 -0.02738,-0.236654 -0.05247,-0.289545 -0.07729,-0.162892 -0.06622,-0.161239 -1.200312,-0.179217 -1.36585,-0.02165 -5.5132379,-0.02145 -6.4745799,3.28e-4 -0.8480017,0.01919 -0.8428508,0.01832 -0.984887,0.167833 -0.040224,0.04235 -0.099951,0.127874 -0.1327242,0.190066 l -0.059582,0.113074 0.00207,1.121823 c 0.00114,0.617003 0.010226,1.817755 0.020076,2.668336 l 0.017933,1.546513 0.070867,0.276987 c 0.087521,0.342109 0.1088138,0.40205 0.2714782,0.76434 0.071658,0.159604 0.1354914,0.328966 0.1418489,0.376361 0.01932,0.144011 -0.1963435,0.857681 -0.3752763,1.24189 -0.2711751,0.582272 -0.7288155,1.112929 -1.2219937,1.416964 -0.2313371,0.142614 -0.5876045,0.282693 -0.8428958,0.331413 -0.2412933,0.04605 -0.6795094,0.0635 -0.8655862,0.03451 z"
     id="path3" />
  <path
     style="fill:#d7d7f4;stroke-width:0.094175;stroke-dasharray:none"
     d="m 19.184014,20.603202 c -0.17217,-0.02215 -0.316714,-0.07326 -0.316714,-0.112003 0,-0.01371 0.03033,-0.08504 0.06743,-0.158504 0.09747,-0.193112 0.21708,-0.55059 0.290794,-0.869177 0.03524,-0.152343 0.07066,-0.28458 0.07869,-0.293857 0.0081,-0.0093 0.128546,-0.03667 0.267802,-0.06088 0.139255,-0.02421 0.299933,-0.06465 0.357062,-0.08987 0.167726,-0.07406 0.375199,-0.241789 0.495162,-0.400325 0.239795,-0.316905 0.299849,-0.549538 0.282406,-1.093969 -0.01748,-0.545549 -0.07734,-0.735622 -0.534276,-1.696549 -0.322557,-0.678323 -0.432067,-0.931653 -0.52937,-1.22459 -0.199669,-0.601116 -0.221317,-1.069875 -0.07043,-1.525141 0.141085,-0.425699 0.438235,-0.756238 0.818909,-0.910919 0.249903,-0.101545 0.874287,-0.11316 1.18755,-0.0221 0.165771,0.04819 0.344949,0.125946 0.32839,0.142507 -0.0074,0.0074 -0.119528,0.03839 -0.249407,0.06908 -0.303949,0.07182 -0.500538,0.169738 -0.663783,0.330579 -0.243378,0.239792 -0.372679,0.583687 -0.372679,0.991205 0,0.487419 0.171457,0.926027 0.691332,1.768517 0.482819,0.782439 0.741084,1.305719 0.84473,1.71154 0.115619,0.45273 0.133421,1.213809 0.03608,1.543061 -0.254937,0.862322 -0.903442,1.540637 -1.73169,1.811297 -0.318808,0.104186 -0.867751,0.142884 -1.277993,0.0901 z"
     id="path4" />
  <path
     style="fill:#d7d7f4;stroke-width:0.094175;stroke-dasharray:none"
     d="m 18.901924,25.797102 c -0.627825,-0.09048 -1.231564,-0.448673 -1.71111,-1.0152 C 17.000828,24.557455 16.868869,24.34979 16.73011,24.056894 16.483903,23.537183 16.212838,22.54513 16.212838,22.163762 v -0.145319 l 0.109642,-0.01291 c 0.06029,-0.007 0.177156,-0.01939 0.259675,-0.02731 0.409995,-0.03933 0.791206,-0.160662 1.128484,-0.359173 0.106514,-0.06269 0.19638,-0.111103 0.199708,-0.107583 0.0033,0.0035 0.03857,0.305583 0.07831,0.671262 0.11053,1.017033 0.150666,1.204168 0.332282,1.549287 0.183946,0.349547 0.511558,0.60729 0.864881,0.680431 0.151882,0.03143 0.444502,0.03187 0.579044,8.32e-4 0.234467,-0.05406 0.533262,-0.257616 0.699627,-0.476643 0.134576,-0.177176 0.219279,-0.370375 0.389077,-0.887451 0.08699,-0.264931 0.195331,-0.552395 0.24074,-0.63881 0.208676,-0.397112 0.657336,-0.679323 1.131466,-0.711704 0.2272,-0.01551 0.434534,0.02877 0.686698,0.146719 0.248116,0.116044 0.244741,0.123996 -0.08039,0.189401 -0.268969,0.05412 -0.426188,0.132008 -0.598901,0.296747 -0.260425,0.248403 -0.326189,0.403802 -0.49353,1.166192 -0.187616,0.854759 -0.340104,1.174729 -0.759828,1.594366 -0.2347,0.234648 -0.490694,0.422346 -0.714321,0.523746 -0.370111,0.167813 -0.935399,0.242955 -1.363576,0.181257 z"
     id="path5" />
  <path
     style="fill:#d7d7f4;stroke-width:0.094175;stroke-dasharray:none"
     d="M 11.607922,13.655015 C 10.897676,13.593328 10.211445,13.404079 9.576682,13.094824 8.689317,12.662503 8.0052945,12.046568 7.510916,11.234687 6.5934283,9.7279603 6.3918061,7.5636446 6.979659,5.5318925 7.1318924,5.0057365 7.2864561,4.6143763 7.5511107,4.0849484 L 7.7270742,3.7329437 h 1.7961602 1.7961586 v 0.1806489 c 0,0.2236383 0.04034,0.6352634 0.07667,0.7825059 0.0174,0.070454 0.03967,0.1101713 0.06182,0.1101713 0.03817,0 0.280525,-0.5832256 0.371688,-0.8944385 l 0.0524,-0.1788875 h 2.323301 2.323303 l 0.163918,0.3404639 c 0.439081,0.9119823 0.708729,1.8320408 0.827009,2.8218086 0.05422,0.453664 0.05475,1.3902046 0.0011,1.8215155 -0.284049,2.2810352 -1.510818,3.9431182 -3.417448,4.6301152 -0.745659,0.268676 -1.655711,0.381073 -2.495179,0.308168 z m 1.088627,-3.261375 c 0.399273,-0.07971 0.737858,-0.279496 1.07274,-0.6329966 0.258051,-0.2723985 0.369396,-0.446698 0.382465,-0.5987123 0.01722,-0.2001916 -0.142339,-0.3479389 -0.34621,-0.3205942 -0.108107,0.0145 -0.155702,0.055028 -0.276133,0.2351549 -0.242527,0.3627296 -0.622999,0.6297655 -1.004122,0.7047469 -0.237828,0.046785 -0.738205,0.018408 -0.963531,-0.054662 C 11.249284,9.6252617 10.998537,9.4384911 10.775361,9.1408429 10.549198,8.8392102 10.543057,8.8341226 10.405096,8.8341226 c -0.09616,0 -0.135289,0.012174 -0.191463,0.059411 -0.183652,0.1545332 -0.133467,0.3876077 0.164863,0.76569 0.287036,0.3637664 0.878015,0.7051554 1.332652,0.7698254 0.180532,0.02567 0.788898,0.0039 0.985401,-0.03541 z M 10.107574,7.8796102 C 10.407949,7.7394354 10.578943,7.3536028 10.514262,6.9619485 10.446464,6.5514349 10.194561,6.295077 9.8589685,6.295077 c -0.2736221,0 -0.4892825,0.1609516 -0.5974292,0.4458739 -0.074932,0.1974062 -0.074653,0.5642871 5.625e-4,0.7578 0.062612,0.1610621 0.2009465,0.3218042 0.3313868,0.3850545 0.1412023,0.068468 0.362234,0.066666 0.5140824,-0.00414 z m 4.571171,-2.897e-4 C 15.104732,7.6809537 15.235777,7.0119166 14.935879,6.5665432 14.810553,6.380425 14.658697,6.2950808 14.452856,6.2950808 c -0.07642,0 -0.180165,0.012345 -0.230537,0.02744 -0.131475,0.039396 -0.302561,0.2033631 -0.385626,0.3695874 -0.06715,0.1344017 -0.07055,0.1547462 -0.07007,0.4203089 4.17e-4,0.2297338 0.0088,0.2972014 0.04702,0.3816155 0.165262,0.3643011 0.546009,0.5338745 0.865095,0.3852872 z"
     id="path6" />
  <path
     style="fill:#d7d7f4;stroke-width:0.094175;stroke-dasharray:none"
     d="m 16.282085,19.113669 v -1.123107 l 0.363547,0.01575 c 0.199949,0.0087 0.392392,0.02195 0.427651,0.02951 0.101205,0.02171 0.280596,0.198907 0.340535,0.336373 0.135737,0.31129 0.04987,0.905153 -0.188194,1.3015 -0.105795,0.176134 -0.297738,0.363973 -0.446112,0.436564 -0.137863,0.06745 -0.338527,0.125821 -0.433951,0.126235 l -0.06347,2.88e-4 z"
     id="path7" />
  <path
     style="fill:#d7d7f4;stroke-width:0.179235;stroke-dasharray:none"
     d="m 11.999408,3.2096232 c 0.113209,-0.5482866 0.245951,-0.9782229 0.392462,-1.2710776 0.245093,-0.489905 0.789407,-1.05367343 1.017315,-1.05367343 0.167614,0 0.622995,0.21011613 1.00775,0.46498353 0.665829,0.4410535 1.274053,1.0886371 1.811948,1.9292005 0.12369,0.1932928 0.224896,0.3662668 0.224899,0.3843885 3e-6,0.018121 -1.024843,0.032946 -2.277434,0.032946 h -2.27744 z"
     id="path8" />
  <path
     style="fill:#d7d7f4;stroke-width:0.179235;stroke-dasharray:none"
     d="m 7.815411,3.6306346 c 0.050024,-0.130371 0.4875024,-0.7538489 0.755292,-1.0764231 0.9415915,-1.1342236 2.009544,-1.76083414 3.226728,-1.89324896 0.653545,-0.0710979 0.653417,-0.071188 0.386985,0.26783932 -0.2628,0.33440424 -0.60383,1.02599504 -0.73652,1.49362004 -0.05318,0.1874237 -0.10504,0.5330823 -0.120281,0.8017224 l -0.0268,0.4722476 H 9.5455012 c -1.5406046,0 -1.7522329,-0.00805 -1.7300867,-0.065757 z"
     id="path9" />
  <path
     style="fill:#d7d7f4;stroke-width:0.0467232;stroke-dasharray:none"
     d="M 8.0201753,3.6753013 C 7.824404,3.6631392 7.8056934,3.6545295 7.8386382,3.5918307 7.8950418,3.48449 8.1503172,3.1123074 8.3506428,2.8453589 c 0.7040626,-0.938212 1.5036934,-1.58282 2.3835892,-1.92148796 0.419382,-0.16141885 0.929282,-0.26565066 1.420013,-0.29027305 0.159106,-0.007987 0.201128,0.002958 0.189492,0.049318 -0.0087,0.0344167 -0.04906,0.095483 -0.15035,0.22710434 -0.328539,0.42694297 -0.693152,1.20270747 -0.788515,1.67767577 -0.04026,0.2005409 -0.07148,0.4608243 -0.08586,0.7157319 -0.0067,0.1196708 -0.01527,0.2549441 -0.01892,0.3006078 l -0.0067,0.083025 -1.57077,-0.00174 C 8.8586968,3.6843348 8.0925879,3.6798657 8.0201557,3.675349 Z"
     id="path10" />
  <path
     style="fill:#d7d7f4;stroke-width:0.0467232;stroke-dasharray:none"
     d="m 8.0076746,3.6752451 c -0.1533583,-0.0097 -0.1821785,-0.016629 -0.1821785,-0.043787 0,-0.039803 0.1920044,-0.3321612 0.4561002,-0.6944808 C 9.0945628,1.8216435 10.04827,1.0981745 11.09496,0.80279766 c 0.322986,-0.0911465 0.860294,-0.17334138 1.133136,-0.17334138 0.136942,0 0.148682,0.0297418 0.06,0.15198718 -0.02638,0.0363561 -0.09005,0.12396041 -0.14151,0.19467897 C 11.928952,1.2752387 11.68954,1.7370106 11.52909,2.1671369 c -0.122103,0.327321 -0.183854,0.6658813 -0.210387,1.1534726 -0.0067,0.1228195 -0.01508,0.2555161 -0.01865,0.2948814 l -0.0065,0.071575 -1.5765628,-0.00167 C 8.8497998,3.6844888 8.0806133,3.6799439 8.007604,3.6752934 Z"
     id="path11" />
  <path
     style="fill:#d7d7f4;stroke-width:0.0181734;stroke-dasharray:none"
     d="m 8.7668211,3.6915716 c -0.3062322,-0.00167 -0.6058952,-0.00538 -0.6659169,-0.00804 -0.1849909,-0.00837 -0.2624194,-0.018522 -0.278705,-0.036514 -0.00767,-0.00843 -0.00743,-0.00978 0.00512,-0.036408 C 7.8679057,3.5244169 8.043834,3.2584039 8.2272202,3.0059393 8.5153517,2.6092724 8.7350941,2.3492375 9.0335092,2.0518048 L 9.1353674,1.9502692 h 1.2404646 c 0.990648,0 1.239993,0.00107 1.238127,0.0056 -0.07494,0.1785049 -0.141663,0.3686871 -0.176996,0.5044488 -0.04371,0.1679165 -0.08468,0.4321815 -0.104297,0.6725977 -0.0051,0.062931 -0.0336,0.5375914 -0.0336,0.5601266 3e-6,0.00394 -1.7404619,0.00295 -2.5322611,-0.00144 z"
     id="path12" />
  <path
     style="fill:#d5fff6;stroke-width:0.0181734;stroke-dasharray:none"
     d="M 8.6755078,3.6916033 C 8.0012405,3.6871354 7.8409003,3.6778914 7.8189256,3.6424679 7.795831,3.6052414 8.2873158,2.8970612 8.5783801,2.5481624 8.7205332,2.377762 8.8624952,2.2224126 9.0218445,2.0628787 L 9.1343351,1.9502616 h 1.2409789 c 0.990992,0 1.240535,0.00107 1.238773,0.0056 -0.0012,0.00303 -0.01668,0.041643 -0.03436,0.085746 -0.03501,0.087314 -0.05706,0.1467342 -0.08755,0.2360768 -0.08236,0.2412307 -0.134316,0.5312718 -0.163991,0.9153571 -0.0022,0.028249 -0.02904,0.4901361 -0.02908,0.5000094 -1.4e-5,0.00402 -1.9671476,0.00295 -2.6235879,-0.00137 z"
     id="path13" />
  <path
     style="fill:#aaffcc;stroke-width:0.0740499;stroke-dasharray:none"
     d="m 16.271964,21.167884 c 0.0025,-0.319134 0.0025,-0.319099 0.135127,-0.335601 0.13548,-0.01685 0.414551,-0.09498 0.575637,-0.161132 0.170624,-0.07008 0.369287,-0.212317 0.52545,-0.376218 0.218378,-0.229196 0.3435,-0.447343 0.473973,-0.826365 l 0.07574,-0.219996 v -0.453738 c 0,-0.425788 -0.0025,-0.461143 -0.04156,-0.573983 -0.109861,-0.317837 -0.337381,-0.570677 -0.643017,-0.714581 -0.149239,-0.07026 -0.300368,-0.09954 -0.514975,-0.09973 -0.08079,-7.3e-5 -0.246175,-0.0055 -0.367529,-0.01205 l -0.220644,-0.01181 v -0.278526 -0.27853 l 0.313078,1.45e-4 c 0.360449,1.78e-4 0.7768,0.0268 0.899877,0.05751 0.431536,0.107706 0.78956,0.40701 1.000811,0.836682 0.211298,0.429768 0.265737,0.932466 0.164873,1.52246 -0.141635,0.82847 -0.648494,1.560968 -1.320177,1.907878 -0.289541,0.149541 -0.666461,0.248992 -0.943688,0.248992 h -0.114767 z"
     id="path15" />
  <path
     style="display:inline;fill:url(#linearGradient4);stroke-width:0.239835;stroke-dasharray:none"
     d="m 19.001151,20.526545 c -0.05981,-0.04062 -0.03927,-0.16143 0.09776,-0.575645 0.09539,-0.288324 0.182347,-0.574458 0.193233,-0.635855 0.01439,-0.08117 0.116874,-0.138182 0.375608,-0.208959 0.195699,-0.05354 0.421428,-0.146822 0.501617,-0.207308 0.427961,-0.322812 0.627661,-0.869534 0.557213,-1.525497 -0.05168,-0.481182 -0.103043,-0.628849 -0.569985,-1.638724 -0.545381,-1.179508 -0.660721,-1.574784 -0.626528,-2.147163 0.03176,-0.531564 0.165326,-0.831516 0.508238,-1.141316 0.129376,-0.116884 0.336298,-0.240581 0.459826,-0.274883 0.292963,-0.08134 0.810371,-0.07273 1.106345,0.01845 l 0.235132,0.07242 -0.313976,0.105917 c -0.616825,0.208071 -0.926092,0.667503 -0.913292,1.356737 0.0081,0.4359 0.154812,0.828629 0.581951,1.557753 0.529617,0.904055 0.905761,1.709144 0.974969,2.086802 0.03555,0.193984 0.0539,0.5809 0.04079,0.859811 -0.0199,0.42307 -0.05519,0.570733 -0.212839,0.890991 -0.249901,0.507621 -0.71928,0.977751 -1.224522,1.226482 -0.369629,0.181967 -0.449627,0.198319 -1.048027,0.21421 -0.356318,0.0095 -0.6819,-0.0059 -0.723517,-0.0342 z"
     id="path17" />
  <path
     style="display:inline;fill:#eeaaff;stroke-width:0.239835;stroke-dasharray:none"
     d="m 16.284619,19.132759 v -1.087488 h 0.400483 c 0.370259,0 0.413515,0.01361 0.573137,0.180359 0.153269,0.160113 0.17254,0.221151 0.171658,0.543744 -0.0013,0.463947 -0.146771,0.84279 -0.425672,1.10832 -0.190046,0.180934 -0.505963,0.342552 -0.669595,0.342552 -0.0275,0 -0.05001,-0.489369 -0.05001,-1.087487 z"
     id="path18" />
  <path
     style="display:inline;fill:url(#linearGradient6);stroke-width:0.239835;stroke-dasharray:none"
     d="m 18.635946,25.71041 c -0.724495,-0.193844 -1.500524,-0.877334 -1.857295,-1.635833 -0.217807,-0.46306 -0.458951,-1.257158 -0.520999,-1.71568 l -0.04071,-0.300851 0.406242,-0.06029 c 0.223434,-0.03316 0.575931,-0.130169 0.783325,-0.215569 0.207396,-0.08541 0.402198,-0.160958 0.432898,-0.167904 0.03069,-0.0069 0.08824,0.271248 0.12787,0.61821 0.03964,0.346961 0.101021,0.7702 0.136419,0.940531 0.09071,0.436412 0.369582,0.895398 0.661366,1.088492 0.21261,0.140698 0.302276,0.16173 0.689557,0.16173 0.406823,0 0.468917,-0.0165 0.720917,-0.191486 0.301853,-0.209606 0.485483,-0.534651 0.784748,-1.389084 0.185473,-0.529549 0.393734,-0.79833 0.753529,-0.972505 0.316208,-0.153071 0.803199,-0.158004 1.125129,-0.01145 l 0.235133,0.107085 -0.240057,0.04184 c -0.604331,0.105357 -0.842633,0.414771 -1.107959,1.438594 -0.248103,0.957377 -0.36929,1.211889 -0.765865,1.608461 -0.653187,0.653191 -1.47108,0.883907 -2.324244,0.655646 z"
     id="path19" />
  <g
     id="g23"
     transform="matrix(0.1376953,0,0,0.1376953,-0.66524059,-8.1351817)">
    <path
       style="display:inline;fill:url(#linearGradient2);stroke-width:6.58311;stroke-dasharray:none"
       d="M 297.69225,370.49963 C 223.81782,354.38184 181.39703,297.61025 181.42716,214.90246 c 0.013,-35.58381 5.87439,-62.78201 20.66853,-95.90623 l 10.86066,-21.402266 47.31913,-2.431903 46.27689,4.168977 1.35023,14.990012 c 1.13625,12.6144 2.22567,17.17986 4.36657,17.17986 1.31265,0 11.23921,-24.18011 11.23921,-27.37758 0,-1.11698 21.00509,-1.66556 63.77432,-1.66556 h 63.77429 l 5.65217,12.40285 c 7.29514,16.00813 14.10968,36.48483 17.88803,53.75098 2.39148,10.92841 2.98357,20.27107 2.9143,45.98498 -0.0798,29.63379 -0.43326,33.54957 -4.32612,47.93057 -14.98434,55.35501 -50.79079,92.64999 -102.0785,106.32213 -18.59255,4.95636 -54.55632,5.76481 -73.41462,1.65035 z m 58.4909,-88.58268 c 4.21597,-1.87354 11.72838,-7.24902 16.69424,-11.94554 13.12415,-12.41226 16.58791,-20.65081 11.0223,-26.21643 -4.73875,-4.73875 -9.25276,-2.99211 -18.02615,6.97498 -10.89751,12.3802 -18.9958,16.30838 -33.59691,16.29663 -19.1537,-0.0154 -27.77278,-4.08399 -38.89541,-18.36038 -4.31669,-5.54066 -6.90285,-7.44674 -10.10369,-7.44674 -9.72684,0 -11.16719,10.37181 -2.93049,21.10225 7.19806,9.37734 15.1088,15.43275 26.36965,20.18513 8.48703,3.58176 11.29811,3.95627 25.66599,3.41941 11.92557,-0.4456 18.13493,-1.49161 23.80047,-4.00931 z m -78.2028,-67.41831 c 5.43165,-3.80447 8.41735,-10.92379 8.41735,-20.07091 0,-14.43103 -6.74585,-22.58911 -18.67876,-22.58911 -12.17383,0 -20.07447,12.46575 -17.74517,27.99861 1.60997,10.73611 8.11745,17.17962 17.35017,17.17962 3.88364,0 8.67903,-1.1332 10.65641,-2.51821 z m 125.63408,0.15378 c 11.18194,-7.83213 11.18194,-32.61725 0,-40.44938 -1.85663,-1.30043 -6.31993,-2.36442 -9.91844,-2.36442 -12.22589,0 -18.55535,8.18929 -18.55535,24.00761 0,8.73615 0.51274,10.18996 5.43443,15.40845 4.63485,4.91438 6.48119,5.76217 12.54904,5.76217 3.91305,0 8.63369,-1.064 10.49032,-2.36443 z"
       id="path20"
       transform="matrix(0.26458333,0,0,0.26458333,5.4838757,59.286112)"
       sodipodi:nodetypes="ssscccsssscssssssssssssssssssssssssssssss" />
    <path
       style="display:inline;fill:#eeaaff;stroke-width:6.58311;stroke-dasharray:none"
       d="M 326.19544,93.986849 C 333.77327,65.15341 340.2368,45.629375 353.21,33.359865 c 10.63142,-10.05476 13.25774,-10.321012 28.09642,-2.848372 12.25974,6.173903 23.90767,14.919449 35.07631,26.336118 8.35066,8.536113 25.4259,30.736427 29.08881,37.819708 l 6.1814,8.732411 -65.48338,1.04224 -62.35665,-1.38966 z"
       id="path21"
       sodipodi:nodetypes="ssssscccs"
       transform="matrix(0.26458333,0,0,0.26458333,5.4838757,59.286112)" />
    <path
       id="path22"
       style="display:inline;fill:#eeaaff;stroke-width:6.58311;stroke-dasharray:none"
       sodipodi:type="inkscape:offset"
       inkscape:radius="0"
       inkscape:original="M 248.36914 54.052734 L 240.09961 62.523438 C 231.71841 71.108193 213.78906 95.138566 213.78906 97.787109 C 213.78906 98.603331 234.03059 99.230469 260.34961 99.230469 L 306.91016 99.230469 L 307.98242 86.353516 C 308.57308 79.270948 310.41763 69.105117 312.08008 63.763672 L 315.10156 54.052734 L 281.73633 54.052734 L 248.36914 54.052734 z "
       d="m 248.36914,54.052734 -8.26953,8.470704 c -8.3812,8.584755 -26.31055,32.615128 -26.31055,35.263671 0,0.816222 20.24153,1.44336 46.56055,1.44336 h 46.56055 l 1.07226,-12.876953 c 0.59066,-7.082568 2.43521,-17.248399 4.09766,-22.589844 l 3.02148,-9.710938 h -33.36523 z"
       transform="matrix(0.26458333,0,0,0.26458333,5.4838757,59.286112)" />
    <path
       style="display:inline;fill:#eeaaff;stroke-width:6.58311;stroke-dasharray:none"
       d="m 247.89735,56.812385 c 0,-0.26974 6.29069,-9.066664 12.28084,-13.604067 20.39321,-15.447403 41.65433,-23.835127 65.48021,-25.832604 9.42601,-0.790242 11.03876,-0.573586 9.88373,1.327781 -0.75913,1.249661 -3.9588,6.282532 -7.11037,11.184159 -3.15157,4.901626 -7.11104,11.980893 -8.79882,15.731704 l -5.84801,11.683463 -32.59637,-0.694829 c -18.49704,-0.394286 -33.29121,0.474133 -33.29121,0.204393 z"
       id="path23"
       transform="matrix(0.26458333,0,0,0.26458333,5.4838757,59.286112)"
       sodipodi:nodetypes="sssssscss" />
  </g>
  <path
     style="display:inline;fill:url(#linearGradient10);stroke-width:0.109342"
     d="M 10.356247,23.515592 C 10.018188,23.48652 9.5839561,23.34792 9.2679175,23.168196 9.0111336,23.022171 8.6540542,22.690558 8.4934314,22.448947 8.3128647,22.177337 8.1075659,21.7333 8.058439,21.508109 8.020017,21.331968 8.0131994,20.988129 8.0033747,18.727651 l -0.011201,-2.57946 h 3.8609313 3.860931 l -0.0021,0.730289 c -0.0011,0.40166 -0.01218,1.580505 -0.02449,2.619661 -0.0252,2.12532 -0.02183,2.087972 -0.226988,2.513108 -0.157957,0.327324 -0.248631,0.456855 -0.508317,0.726139 -0.375739,0.389629 -0.707779,0.590969 -1.187296,0.719945 l -0.261782,0.07042 -1.433779,0.0059 c -0.788579,0.0033 -1.559442,-0.0048 -1.713034,-0.01809 z"
     id="path14" />
  <text
     xml:space="preserve"
     style="font-style:normal;font-variant:normal;font-weight:normal;font-stretch:normal;font-size:0.438022px;font-family:'Red Hat Mono';-inkscape-font-specification:'Red Hat Mono';text-align:start;writing-mode:lr-tb;direction:ltr;text-anchor:start;fill:#000000;fill-opacity:1;stroke-width:0.148927"
     x="9.4027538"
     y="18.999983"
     id="text14-3"><tspan
       sodipodi:role="line"
       id="tspan14-6"
       style="fill:#000000;stroke-width:0.148927"
       x="9.4027538"
       y="18.999983" /></text>
</svg>
