<?xml version="1.0" encoding="UTF-8" standalone="no"?>
<!-- Created with Inkscape (http://www.inkscape.org/) -->

<svg
   width="149.99998"
   height="163.99567"
   viewBox="0 0 39.687496 43.390521"
   version="1.1"
   id="svg1"
   xml:space="preserve"
   inkscape:version="1.4.2 (ebf0e940d0, 2025-05-08)"
   sodipodi:docname="octobean.svg"
   xmlns:inkscape="http://www.inkscape.org/namespaces/inkscape"
   xmlns:sodipodi="http://sodipodi.sourceforge.net/DTD/sodipodi-0.dtd"
   xmlns:xlink="http://www.w3.org/1999/xlink"
   xmlns="http://www.w3.org/2000/svg"
   xmlns:svg="http://www.w3.org/2000/svg"><sodipodi:namedview
     id="namedview1"
     pagecolor="#ffffff"
     bordercolor="#000000"
     borderopacity="0.25"
     inkscape:showpageshadow="2"
     inkscape:pageopacity="0.0"
     inkscape:pagecheckerboard="true"
     inkscape:deskcolor="#d1d1d1"
     inkscape:document-units="mm"
     inkscape:zoom="3.8450186"
     inkscape:cx="46.683779"
     inkscape:cy="80.623797"
     inkscape:window-width="1920"
     inkscape:window-height="1011"
     inkscape:window-x="1920"
     inkscape:window-y="32"
     inkscape:window-maximized="1"
     inkscape:current-layer="layer1"
     showborder="false"
     showgrid="false" /><defs
     id="defs1"><linearGradient
       id="linearGradient9"
       inkscape:collect="always"><stop
         style="stop-color:#aaffcc;stop-opacity:1;"
         offset="0"
         id="stop9" /><stop
         style="stop-color:#aaffcc;stop-opacity:0.47949219;"
         offset="1"
         id="stop10" /></linearGradient><linearGradient
       id="linearGradient7"
       inkscape:collect="always"><stop
         style="stop-color:#eeaaff;stop-opacity:1;"
         offset="0"
         id="stop7" /><stop
         style="stop-color:#eeaaff;stop-opacity:0.8;"
         offset="0.71547782"
         id="stop11" /><stop
         style="stop-color:#eeaaff;stop-opacity:0.49961919;"
         offset="1"
         id="stop8" /></linearGradient><linearGradient
       id="linearGradient5"
       inkscape:collect="always"><stop
         style="stop-color:#eeaaff;stop-opacity:1;"
         offset="0"
         id="stop5" /><stop
         style="stop-color:#eeaaff;stop-opacity:0.49858889;"
         offset="1"
         id="stop6" /></linearGradient><linearGradient
       id="linearGradient3"
       inkscape:collect="always"><stop
         style="stop-color:#eeaaff;stop-opacity:1;"
         offset="0"
         id="stop3" /><stop
         style="stop-color:#eeaaff;stop-opacity:0.50012803;"
         offset="1"
         id="stop4" /></linearGradient><linearGradient
       id="linearGradient1"
       inkscape:collect="always"><stop
         style="stop-color:#eeaaff;stop-opacity:1;"
         offset="0"
         id="stop1" /><stop
         style="stop-color:#eeaaff;stop-opacity:0.4975805;"
         offset="1"
         id="stop2" /></linearGradient><inkscape:path-effect
       effect="offset"
       id="path-effect2"
       is_visible="true"
       lpeversion="1.3"
       linejoin_type="miter"
       unit="mm"
       offset="0.41540842"
       miter_limit="4"
       attempt_force_join="false"
       update_on_knot_move="true" /><linearGradient
       inkscape:collect="always"
       xlink:href="#linearGradient1"
       id="linearGradient2"
       x1="329.47198"
       y1="86.105309"
       x2="329.47198"
       y2="382.19498"
       gradientUnits="userSpaceOnUse" /><linearGradient
       inkscape:collect="always"
       xlink:href="#linearGradient3"
       id="linearGradient4"
       x1="39.221306"
       y1="88.797112"
       x2="39.221306"
       y2="83.457466"
       gradientUnits="userSpaceOnUse" /><linearGradient
       inkscape:collect="always"
       xlink:href="#linearGradient5"
       id="linearGradient6"
       x1="32.022072"
       y1="98.248047"
       x2="43.305947"
       y2="98.248047"
       gradientUnits="userSpaceOnUse" /><linearGradient
       inkscape:collect="always"
       xlink:href="#linearGradient7"
       id="linearGradient8"
       x1="34.045303"
       y1="90.415695"
       x2="7.2431412"
       y2="90.415695"
       gradientUnits="userSpaceOnUse" /><linearGradient
       inkscape:collect="always"
       xlink:href="#linearGradient9"
       id="linearGradient10"
       x1="24.841068"
       y1="85.536438"
       x2="24.841068"
       y2="98.243286"
       gradientUnits="userSpaceOnUse" /></defs><g
     inkscape:label="Layer 1"
     inkscape:groupmode="layer"
     id="layer1"
     transform="translate(-5.4838757,-59.286113)"><path
       style="fill:#000000;stroke-width:0.226587"
       d="m 12.58078,102.6005 c -0.550792,-0.1 -0.800289,-0.18252 -1.287424,-0.42601 -0.869011,-0.43437 -1.6362522,-1.21277 -2.0926368,-2.12306 C 8.9269977,99.505476 8.8042215,99.122354 8.6264505,98.259447 8.4262179,97.287514 8.2876917,96.925673 8.0288206,96.698383 7.7790584,96.479086 7.6105661,96.430453 7.2279446,96.467219 6.8271667,96.505728 6.6056191,96.68428 6.3885487,97.143713 6.1894377,97.565133 6.0251644,97.667341 5.749109,97.541561 5.4745468,97.416462 5.4061108,96.901885 5.5768531,96.246363 c 0.4045098,-1.553027 2.0736036,-2.568939 3.6644795,-2.230431 0.6779957,0.144265 1.0720104,0.362017 1.5823264,0.874478 0.53691,0.539161 0.796698,1.030785 1.04806,1.983342 0.318205,1.205878 0.65995,1.618681 1.340049,1.618681 0.366076,0 0.583885,-0.07791 0.806722,-0.288581 0.396482,-0.374827 0.521977,-0.826644 0.727906,-2.620657 0.08337,-0.726293 0.177939,-1.412446 0.210157,-1.524783 0.03222,-0.112337 0.04969,-0.213134 0.03883,-0.223995 -0.01085,-0.01085 -0.112964,0.01922 -0.226899,0.06681 -0.441876,0.184628 -1.251315,0.290131 -1.969496,0.256708 C 11.365032,94.091199 10.171341,93.555892 9.1719472,92.5314 7.7218316,91.044867 7.3325575,88.974572 8.0721078,86.682062 8.2904085,86.005356 8.6491794,85.309553 9.3173526,84.267026 9.5875031,83.845518 9.9350852,83.238893 10.089753,82.91897 c 0.267996,-0.554331 0.281215,-0.605875 0.281215,-1.096484 0,-0.458113 -0.01772,-0.541569 -0.160829,-0.757835 C 9.7392234,80.353048 8.7327968,80.275924 8.0652966,80.900291 7.7457886,81.199155 7.5132583,81.244769 7.2784622,81.054645 7.166041,80.963611 7.1396346,80.882332 7.1369314,80.619013 7.126735,79.625234 8.3567509,78.479441 9.7399599,78.194234 10.31968,78.0747 11.254859,78.0786 11.735291,78.20255 c 1.177704,0.303857 2.037055,1.178469 2.350337,2.392073 0.05738,0.222282 0.09194,0.618764 0.09145,1.049145 -0.0014,1.196978 -0.249601,2.062444 -1.049614,3.659411 -0.762386,1.521855 -0.992981,2.189582 -0.99376,2.877586 -0.0011,0.933038 0.430712,1.50645 1.142412,1.517185 0.590148,0.0089 1.0446,-0.413729 1.264956,-1.176382 0.323632,-1.120103 0.442898,-1.487016 0.636918,-1.959415 0.421021,-1.025105 1.230238,-2.290892 2.41601,-3.779155 0.773117,-0.970339 1.149158,-1.565684 1.183957,-1.874436 0.02935,-0.260376 0.02344,-0.270643 -0.441674,-0.767518 -0.63303,-0.676251 -0.914047,-1.022728 -1.234795,-1.522415 -1.126279,-1.754608 -1.684363,-3.642095 -1.763748,-5.965137 -0.08309,-2.431543 0.389562,-4.681468 1.442042,-6.864404 1.702606,-3.531347 4.36581,-5.866308 7.319993,-6.417793 0.801742,-0.149668 2.251418,-0.09586 3.028952,0.112424 1.725947,0.462345 3.246762,1.446487 4.51798,2.923653 1.573735,1.828694 2.676241,4.077634 3.215507,6.559134 0.272505,1.253955 0.327525,1.808537 0.32118,3.237361 -0.005,1.134307 -0.02747,1.441015 -0.160278,2.191175 -0.389827,2.201924 -1.277615,4.035871 -2.686311,5.549231 -0.685353,0.736277 -0.696698,0.775324 -0.393989,1.35608 0.23084,0.442869 0.469044,0.774257 1.399584,1.947087 0.840524,1.05938 1.337047,1.776695 1.816022,2.623564 0.241462,0.426926 0.516367,0.809717 0.783368,1.0908 0.598393,0.629953 0.998192,1.527921 1.100562,2.471923 0.03202,0.295243 0.11504,0.376253 0.336099,0.32794 0.710297,-0.15524 1.035488,-0.54153 1.117653,-1.327643 0.06757,-0.646498 -0.145319,-1.362014 -0.788835,-2.651228 -1.068169,-2.139967 -1.406541,-3.347061 -1.282178,-4.574009 0.09092,-0.897028 0.430587,-1.63076 1.025512,-2.215268 0.635318,-0.624192 1.3942,-0.895279 2.506244,-0.895279 0.758717,0 1.302127,0.11672 1.916778,0.411711 1.016045,0.487631 1.875575,1.740654 1.618975,2.360143 -0.152545,0.368274 -0.530479,0.404838 -0.841181,0.08138 -0.812022,-0.845357 -2.187722,-0.53104 -2.389151,0.545869 -0.119103,0.636763 0.179776,1.415828 1.102952,2.874955 0.941542,1.488162 1.390716,2.590319 1.535551,3.767844 0.16074,1.306842 -0.153096,2.674011 -0.851229,3.708204 -0.534045,0.791121 -1.445726,1.543841 -2.292921,1.893129 -1.215752,0.501242 -2.62914,0.562468 -3.761511,0.162943 -0.139451,-0.0492 -0.266138,-0.07686 -0.281525,-0.06148 -0.03058,0.03058 0.122656,1.59115 0.259553,2.643288 0.185325,1.424342 0.603924,2.028092 1.398538,2.017125 0.293065,-0.0041 0.491813,-0.08619 0.74373,-0.30737 0.275315,-0.24173 0.435888,-0.595867 0.650924,-1.435573 0.319134,-1.246219 0.863404,-1.995291 1.790027,-2.463585 1.167981,-0.590272 2.668503,-0.386068 3.632588,0.494354 0.602116,0.549868 0.980081,1.357933 0.982385,2.10028 0.0011,0.353541 -0.01819,0.426849 -0.145888,0.554549 -0.151199,0.151197 -0.355818,0.187425 -0.509499,0.09021 -0.04791,-0.03031 -0.169314,-0.224309 -0.269781,-0.431111 -0.100464,-0.206801 -0.252198,-0.42618 -0.337181,-0.487513 -0.359463,-0.259415 -0.967404,-0.231771 -1.280133,0.05821 -0.26045,0.241501 -0.441736,0.708474 -0.627566,1.616542 -0.267153,1.305444 -0.656613,2.104576 -1.406221,2.885426 -0.900278,0.93781 -1.947107,1.41391 -3.276065,1.48997 -2.534556,0.14506 -4.73128,-1.54927 -5.724254,-4.415117 -0.11996,-0.346218 -0.257684,-0.816814 -0.306051,-1.045767 -0.04837,-0.228954 -0.09647,-0.424803 -0.106886,-0.435221 -0.01042,-0.01042 -0.137835,0.13181 -0.283149,0.316062 -0.585302,0.742128 -1.67557,1.429 -2.722204,1.714993 -0.448056,0.122432 -0.639361,0.132635 -2.907629,0.155063 -1.526552,0.01509 -2.633132,-1.75e-4 -2.980472,-0.04112 -1.010526,-0.119131 -1.995766,-0.514162 -2.771931,-1.111407 L 19.168491,97.5375 18.983383,98.119878 c -0.654457,2.059002 -2.007607,3.605292 -3.735346,4.268502 -0.731131,0.28065 -1.814799,0.36683 -2.667257,0.21211 z m 1.866866,-0.96554 c 0.240417,-0.0471 0.662911,-0.2023 0.989192,-0.3633 0.995516,-0.49124 1.928379,-1.562979 2.428772,-2.790344 0.204918,-0.502621 0.508402,-1.544296 0.508683,-1.745992 8.4e-5,-0.05965 -0.105544,-0.329431 -0.234726,-0.599513 -0.283642,-0.593012 -0.383924,-0.88794 -0.526026,-1.547054 -0.09881,-0.458313 -0.108388,-0.878811 -0.108388,-4.759262 v -4.256528 l 0.135696,-0.253986 c 0.08826,-0.165186 0.218421,-0.296187 0.372307,-0.374695 0.232952,-0.118843 0.340014,-0.12071 6.926525,-0.12071 5.921336,0 6.71053,0.01067 6.869365,0.0928 0.219916,0.113721 0.294202,0.295639 0.294202,0.720444 v 0.32583 h 0.989195 c 0.544056,0 0.989193,-0.01498 0.989193,-0.03327 0,-0.09399 -0.538373,-0.831302 -2.266799,-3.104441 -0.517527,-0.680626 -0.91061,-1.354389 -0.91061,-1.560828 0,-0.134255 -0.08267,-0.122561 -0.356754,0.05046 -1.609166,1.015824 -3.699654,1.493283 -5.919349,1.351961 -1.624041,-0.103401 -2.814028,-0.423661 -4.149174,-1.116668 -0.408747,-0.21216 -0.747929,-0.378452 -0.753741,-0.369536 -0.0058,0.0089 -0.05737,0.142566 -0.114574,0.297008 -0.145387,0.392521 -0.439069,0.829806 -1.380415,2.055408 -1.651923,2.150745 -2.162462,3.07232 -2.650682,4.78473 -0.266856,0.935997 -0.459074,1.326132 -0.842348,1.709678 -0.872007,0.872631 -2.102911,0.856931 -2.910639,-0.03713 -0.575814,-0.637358 -0.774775,-1.550027 -0.560238,-2.569902 0.130059,-0.618281 0.383929,-1.254564 0.988148,-2.476645 1.036388,-2.096176 1.237371,-3.255422 0.774231,-4.465682 -0.346394,-0.905183 -1.368018,-1.472656 -2.507846,-1.393015 -0.472007,0.03298 -1.2665322,0.265283 -1.3028382,0.380926 -0.013074,0.04162 0.1063146,0.08365 0.3098032,0.109072 0.684358,0.0855 1.383873,0.596307 1.672828,1.22154 0.10674,0.230962 0.129549,0.391136 0.129549,0.909798 0,0.983392 -0.208261,1.494608 -1.303217,3.199009 -0.8432639,1.312618 -1.2345388,2.286171 -1.3555883,3.37291 -0.097523,0.87552 0.053055,1.833457 0.3942476,2.508115 0.5544515,1.096343 1.4476437,1.871907 2.5632847,2.225721 1.600377,0.507539 3.150365,0.19619 4.293868,-0.862519 0.22983,-0.212786 0.433327,-0.371426 0.452218,-0.352536 0.0189,0.0189 -0.02468,0.298889 -0.09683,0.622217 -0.315692,1.414802 -0.482942,2.305094 -0.570858,3.038735 -0.184419,1.538947 -0.226902,1.810337 -0.343651,2.195346 -0.34281,1.130513 -1.128394,1.798534 -2.115042,1.798534 -0.583393,0 -1.001244,-0.180916 -1.441763,-0.62424 -0.42162,-0.424305 -0.577715,-0.729327 -0.780758,-1.525662 -0.408122,-1.600663 -1.1676908,-2.36178 -2.3637368,-2.368557 -0.5095237,-0.0029 -1.0262212,0.137421 -1.2945568,0.351529 L 7.19356,95.42375 7.4333638,95.46422 c 0.7704273,0.130007 1.2009515,0.363557 1.5170244,0.822955 0.2661468,0.386829 0.3538042,0.636847 0.5498812,1.568371 0.2398717,1.139576 0.2746098,1.251621 0.5599306,1.805939 0.307048,0.596525 1.032248,1.348265 1.569742,1.627185 0.904351,0.4693 1.694739,0.56644 2.817704,0.34629 z m 23.590764,-0.004 c 0.681809,-0.1507 1.226925,-0.46494 1.806315,-1.04127 0.437079,-0.43478 0.561203,-0.60476 0.79987,-1.095368 0.235675,-0.484461 0.315835,-0.746129 0.483552,-1.578507 0.120497,-0.59802 0.263154,-1.124723 0.356066,-1.314628 0.284858,-0.582226 0.799027,-0.982794 1.380263,-1.075305 0.628629,-0.100051 0.655128,-0.151113 0.189141,-0.364449 -0.492584,-0.225513 -0.943401,-0.297728 -1.366931,-0.218964 -0.758699,0.141095 -1.34318,0.552323 -1.680137,1.182113 -0.08807,0.164606 -0.257879,0.632905 -0.377354,1.040664 -0.283236,0.966658 -0.484486,1.355173 -0.897511,1.732656 -0.459493,0.419949 -0.878899,0.573541 -1.472638,0.539297 -0.806579,-0.04652 -1.420847,-0.470222 -1.811694,-1.249654 -0.247895,-0.494356 -0.337807,-0.929673 -0.475721,-2.303238 -0.06953,-0.692436 -0.135323,-1.269191 -0.146217,-1.281676 -0.0109,-0.01248 -0.151802,0.062 -0.313132,0.165529 -0.578474,0.371206 -1.217155,0.568749 -2.064313,0.638492 l -0.464621,0.03825 v 0.194228 c 0,0.719647 0.468387,2.425341 0.902316,3.285909 0.353709,0.701477 0.550507,0.970705 1.130898,1.547131 1.104895,1.09735 2.491872,1.49697 4.021848,1.15879 z M 27.748936,97.923502 c 0.946948,-0.200626 1.599736,-0.57164 2.282184,-1.297085 0.319807,-0.339958 0.521671,-0.623221 0.691729,-0.970655 0.466527,-0.953132 0.444892,-0.696268 0.466753,-5.541764 l 0.01953,-4.331742 -6.372385,0.01525 -6.372388,0.01527 v 4.166596 c 0,4.688711 -0.0049,4.62821 0.44968,5.56819 0.5534,1.144361 1.351963,1.84631 2.531617,2.225324 0.658473,0.211564 0.865832,0.225565 3.433474,0.231844 1.940894,0.0047 2.544627,-0.01235 2.869795,-0.08124 z m 5.223604,-3.537978 c 1.515205,-0.318121 2.726423,-1.660438 3.053345,-3.383829 0.380061,-2.00352 -0.378214,-3.587276 -1.914274,-3.998208 -0.183033,-0.04897 -0.632413,-0.08047 -1.154057,-0.0809 l -0.854306,-6.8e-4 v 0.473589 0.473587 l 0.764378,0.02101 c 0.706931,0.01944 0.790763,0.03438 1.115467,0.1989 0.429373,0.217558 0.770207,0.592597 0.947228,1.042286 0.110432,0.28054 0.133236,0.456689 0.133073,1.027989 -1.75e-4,0.611619 -0.02048,0.747254 -0.179826,1.20167 -0.292134,0.833053 -0.723672,1.385282 -1.390034,1.778798 -0.262732,0.155153 -0.998802,0.376796 -1.25134,0.376796 -0.133714,0 -0.138946,0.01806 -0.138946,0.479607 v 0.47961 l 0.224818,-0.0011 c 0.123648,-6.8e-4 0.413664,-0.04069 0.644474,-0.08915 z m 6.055065,-1.368111 c 0.686094,-0.225037 1.189443,-0.540503 1.738572,-1.089621 0.553427,-0.553418 0.904333,-1.157517 1.111755,-1.913941 0.113208,-0.41285 0.12652,-0.581771 0.101563,-1.288949 -0.03516,-0.996164 -0.164395,-1.511588 -0.609947,-2.432515 -0.175478,-0.362704 -0.566569,-1.050645 -0.869092,-1.528755 -1.031816,-1.630687 -1.310615,-2.424201 -1.193508,-3.39693 0.109962,-0.913399 0.702462,-1.568892 1.588981,-1.757915 0.542379,-0.115646 0.577151,-0.127385 0.523403,-0.17672 -0.0295,-0.02708 -0.215503,-0.111123 -0.41334,-0.186771 -0.476107,-0.182051 -1.57441,-0.204631 -2.03834,-0.0419 -1.111484,0.389866 -1.754791,1.61421 -1.581511,3.009942 0.09711,0.782203 0.337329,1.453356 1.041548,2.910004 0.811752,1.679082 0.932373,2.03418 0.974525,2.868935 0.04948,0.979939 -0.109729,1.501306 -0.627499,2.054842 -0.350167,0.374358 -0.778729,0.583405 -1.294826,0.631598 -0.345865,0.0323 -0.406415,0.05545 -0.428297,0.163738 -0.166825,0.825683 -0.372318,1.470686 -0.596125,1.871117 -0.09345,0.167196 -0.123737,0.276008 -0.08371,0.300742 0.224541,0.138775 0.677493,0.196949 1.396879,0.179411 0.645211,-0.01572 0.861919,-0.04608 1.258974,-0.176309 z m -6.237846,-0.584089 c 0.637562,-0.238544 1.090237,-0.872367 1.278053,-1.789498 0.158481,-0.773885 0.01774,-1.319638 -0.424991,-1.648127 -0.143539,-0.106496 -0.272399,-0.128453 -0.854303,-0.145562 l -0.68527,-0.02014 v 1.863644 1.863643 h 0.177606 c 0.09768,0 0.326689,-0.05578 0.508905,-0.123954 z m -6.33454,-10.730376 c 4.721744,-0.512009 7.81135,-4.282792 7.809696,-9.531529 -4.53e-4,-1.405108 -0.140194,-2.439897 -0.513428,-3.801726 -0.978205,-3.569179 -3.417568,-6.700368 -5.935336,-7.618649 -0.410068,-0.149561 -0.444514,-0.153134 -0.616894,-0.06399 -0.277691,0.1436 -0.731492,0.556221 -1.022683,0.929882 -0.572642,0.734823 -0.906198,1.623198 -1.181173,3.145857 -0.106104,0.587544 -0.227622,1.029837 -0.397282,1.44597 -0.134431,0.329731 -0.277648,0.690553 -0.318261,0.801826 -0.04061,0.111273 -0.08744,0.178718 -0.104067,0.149878 -0.224437,-0.389351 -0.275895,-2.542959 -0.08219,-3.439676 0.270307,-1.251317 0.809437,-2.368957 1.546853,-3.206707 l 0.252868,-0.287275 -0.776871,0.03059 c -2.087133,0.08217 -3.996527,1.114389 -5.630305,3.043739 -2.683854,3.169398 -3.806232,7.532195 -2.959814,11.505109 0.368865,1.73138 1.184286,3.298913 2.296576,4.414854 1.878562,1.884723 4.694542,2.800417 7.632307,2.481854 z m -1.935784,-5.330321 c -0.98999,-0.213037 -1.911476,-0.852765 -2.361605,-1.639506 -0.218169,-0.381319 -0.232779,-0.565552 -0.06206,-0.782582 0.09664,-0.12286 0.176701,-0.157963 0.360275,-0.157963 0.210058,0 0.254099,0.02722 0.40032,0.247395 0.675703,1.017464 1.457235,1.41707 2.658323,1.359238 0.466619,-0.02248 0.632112,-0.05877 0.962756,-0.211165 0.439184,-0.202428 0.877704,-0.571568 1.078825,-0.90814 0.225293,-0.377023 0.355082,-0.487328 0.57341,-0.487328 0.247161,0 0.496409,0.225595 0.496409,0.449297 0,0.248426 -0.213606,0.599805 -0.638309,1.050013 -0.729882,0.773713 -1.44068,1.085664 -2.5391,1.114343 -0.379189,0.0099 -0.797349,-0.0052 -0.92924,-0.0336 z m -3.36192,-4.163871 c -0.798377,-0.347641 -0.914177,-1.843352 -0.185731,-2.398964 0.735304,-0.560846 1.660435,0.06092 1.672472,1.124039 0.01081,0.953852 -0.741853,1.599276 -1.486741,1.274925 z m 7.46698,-0.04985 c -0.183657,-0.09286 -0.32306,-0.226834 -0.447348,-0.429944 -0.161518,-0.263952 -0.180549,-0.34611 -0.180549,-0.779367 0,-0.420545 0.02173,-0.521285 0.165096,-0.765159 0.212169,-0.360923 0.468376,-0.540713 0.81848,-0.574355 0.37542,-0.03607 0.675754,0.09878 0.895453,0.402068 0.50673,0.699519 0.32851,1.815453 -0.344793,2.158947 -0.311206,0.158765 -0.575229,0.155214 -0.906339,-0.01219 z"
       id="path1"
       inkscape:label="octobean" /><path
       style="display:inline;fill:url(#linearGradient8);stroke-width:0.154972;stroke-dasharray:none"
       d="m 12.89065,101.69317 c -0.54202,-0.0845 -1.201345,-0.35488 -1.597099,-0.6549 -0.301933,-0.22889 -0.797635,-0.74787 -1.002566,-1.049642 C 9.977529,99.527043 9.8034683,99.093433 9.6380749,98.362134 9.2878897,96.813765 9.2372291,96.659341 8.9474222,96.256879 8.6374776,95.826451 8.2014894,95.583741 7.5220037,95.463362 l -0.2788626,-0.0494 0.088945,-0.07061 c 0.3074107,-0.244049 0.775683,-0.377236 1.3210159,-0.375724 0.5989219,0.0017 0.9983591,0.14839 1.398884,0.513865 0.419362,0.382666 0.676001,0.872557 0.939729,1.793826 0.212828,0.743464 0.397611,1.129166 0.701033,1.463285 0.456761,0.502972 0.913922,0.715749 1.534258,0.71409 0.416424,-0.0011 0.607583,-0.04127 0.930841,-0.195548 0.317538,-0.151546 0.740399,-0.567194 0.936368,-0.920393 0.30011,-0.540895 0.38151,-0.886418 0.586977,-2.491558 0.138423,-1.081384 0.249568,-1.723548 0.49294,-2.848062 0.234342,-1.082789 0.254854,-1.216282 0.18682,-1.215804 -0.02849,1.79e-4 -0.209067,0.135739 -0.401292,0.301198 -0.646318,0.556322 -1.149562,0.836679 -1.826731,1.01767 -0.322339,0.08615 -0.447406,0.09895 -0.995387,0.101841 -0.467043,0.0025 -0.706005,-0.01381 -0.937875,-0.06387 C 11.2135,92.925241 10.503353,92.53588 9.8595798,91.855129 9.2706563,91.232379 8.9347204,90.603438 8.7649836,89.805818 8.645946,89.246442 8.6447064,88.356732 8.7622007,87.808472 c 0.2045385,-0.95443 0.5585277,-1.730217 1.4110683,-3.092437 0.623475,-0.996208 0.957812,-1.64464 1.067362,-2.070098 0.09725,-0.377675 0.13905,-1.193793 0.07782,-1.519338 -0.06399,-0.340217 -0.218789,-0.613276 -0.519101,-0.915647 -0.328407,-0.330658 -0.754006,-0.556698 -1.2108071,-0.643073 -0.325585,-0.06156 -0.3447556,-0.06936 -0.309734,-0.12603 0.025353,-0.04102 0.4886221,-0.197711 0.8200521,-0.277364 0.305197,-0.07335 1.027639,-0.06366 1.329421,0.01783 1.17487,0.317241 1.802646,1.201236 1.798849,2.533028 -0.0016,0.5592 -0.06108,0.872128 -0.3019,1.588115 -0.163306,0.485531 -0.286032,0.766917 -0.955707,2.191239 -0.625996,1.331423 -0.783894,1.869346 -0.786031,2.677833 -0.0016,0.598339 0.05133,0.843531 0.284813,1.319938 0.265558,0.541843 0.793593,0.988312 1.341374,1.134169 0.258574,0.06885 0.677136,0.0665 0.953007,-0.0054 0.369646,-0.09628 0.65962,-0.273427 0.989989,-0.604791 0.426489,-0.427773 0.509162,-0.60431 0.967462,-2.065877 0.468969,-1.495592 0.8521,-2.161798 2.548355,-4.431202 1.006445,-1.346514 1.218123,-1.665069 1.368794,-2.059896 0.04971,-0.130261 0.10339,-0.23709 0.11929,-0.237396 0.0159,-3e-4 0.319702,0.145029 0.675115,0.322968 1.298414,0.650056 2.186067,0.922098 3.550122,1.088016 0.628746,0.07648 2.309855,0.06537 2.886743,-0.01908 1.349328,-0.197516 2.420667,-0.552646 3.458948,-1.14658 0.272931,-0.156126 0.506051,-0.283866 0.518045,-0.283866 0.01199,0 0.03304,0.05989 0.04677,0.133081 0.06389,0.340585 0.428044,0.891686 1.731254,2.620068 0.843558,1.118768 1.320397,1.772582 1.420206,1.947303 0.02139,0.03745 -0.176845,0.04748 -0.93843,0.04748 H 32.1398 L 32.12072,85.596767 C 32.109,85.391285 32.07566,85.207337 32.03436,85.1203 c -0.127198,-0.268051 -0.108977,-0.26533 -1.975194,-0.294914 -2.247601,-0.03563 -9.072406,-0.0353 -10.654359,5.4e-4 -1.395445,0.03159 -1.386968,0.03015 -1.620699,0.27618 -0.06619,0.06968 -0.164476,0.210423 -0.218405,0.312766 l -0.09805,0.186079 0.0035,1.846036 c 0.0019,1.01532 0.01679,2.991237 0.03303,4.390927 l 0.02952,2.544892 0.116615,0.455801 c 0.14403,0.56296 0.179065,0.661599 0.446737,1.257772 0.117921,0.262637 0.222961,0.541336 0.233421,0.619329 0.03179,0.236977 -0.323095,1.41137 -0.617541,2.043611 -0.446238,0.958168 -1.199316,1.831401 -2.010874,2.331711 -0.38068,0.23468 -0.966941,0.46519 -1.387041,0.54536 -0.397065,0.0758 -1.118178,0.1045 -1.42438,0.0568 z"
       id="path3" /><path
       style="fill:#d7d7f4;stroke-width:0.154972;stroke-dasharray:none"
       d="m 36.904591,93.143608 c -0.283317,-0.03645 -0.521174,-0.120567 -0.521174,-0.184308 0,-0.02255 0.04993,-0.139926 0.110967,-0.260829 0.160413,-0.317778 0.35722,-0.906033 0.478518,-1.43029 0.058,-0.250691 0.116276,-0.468293 0.129497,-0.483561 0.01322,-0.01527 0.21153,-0.06035 0.440685,-0.100191 0.229155,-0.03984 0.493562,-0.106389 0.587571,-0.147894 0.276005,-0.121859 0.617414,-0.39788 0.81482,-0.658763 0.394601,-0.521489 0.493423,-0.904299 0.464718,-1.800201 -0.02876,-0.897734 -0.127264,-1.210514 -0.879187,-2.791784 -0.530788,-1.116227 -0.710994,-1.533098 -0.871114,-2.015148 -0.328568,-0.989174 -0.364191,-1.76055 -0.115901,-2.509722 0.232163,-0.700515 0.721147,-1.24444 1.34757,-1.498977 0.411233,-0.1671 1.4387,-0.186215 1.954194,-0.03636 0.272788,0.0793 0.567637,0.207253 0.540387,0.234504 -0.01201,0.01201 -0.1967,0.06317 -0.410415,0.113674 -0.500167,0.118204 -0.823668,0.279315 -1.0923,0.543988 -0.400496,0.394594 -0.613268,0.960499 -0.613268,1.631096 0,0.802081 0.282144,1.523843 1.137633,2.910215 0.794512,1.287555 1.219504,2.148649 1.390061,2.816457 0.190268,0.744994 0.219553,1.997403 0.05937,2.53921 -0.419514,1.419007 -1.486672,2.535222 -2.849613,2.98061 -0.524619,0.171438 -1.427942,0.235126 -2.103022,0.148271 z"
       id="path4" /><path
       style="fill:#d7d7f4;stroke-width:0.154972;stroke-dasharray:none"
       d="m 36.440392,101.69052 c -1.033127,-0.14888 -2.026622,-0.73832 -2.815747,-1.67058 -0.312636,-0.369344 -0.529784,-0.711069 -0.758119,-1.193051 -0.405151,-0.855218 -0.851207,-2.487707 -0.851207,-3.115275 v -0.239132 l 0.180421,-0.02126 c 0.09923,-0.01169 0.291524,-0.03192 0.427314,-0.04494 0.674674,-0.06472 1.301982,-0.26438 1.856996,-0.591043 0.175272,-0.10316 0.323157,-0.18283 0.328634,-0.177045 0.0055,0.0058 0.06346,0.502859 0.128861,1.104607 0.181887,1.673598 0.247933,1.981542 0.546794,2.549458 0.302695,0.575202 0.841804,0.999337 1.423219,1.119694 0.249933,0.05174 0.731461,0.05245 0.952858,0.0014 0.385832,-0.08895 0.877516,-0.423926 1.151282,-0.784349 0.221456,-0.291555 0.36084,-0.609477 0.640253,-1.460361 0.143161,-0.435964 0.321431,-0.909005 0.396154,-1.051204 0.343391,-0.653475 1.081692,-1.117873 1.861904,-1.171157 0.373873,-0.02553 0.715056,0.04736 1.130008,0.241435 0.408292,0.190957 0.402737,0.204044 -0.132288,0.311672 -0.442605,0.08904 -0.701321,0.217226 -0.985532,0.488318 -0.428548,0.408765 -0.536767,0.664482 -0.812137,1.919047 -0.308734,1.406562 -0.559663,1.933094 -1.250348,2.623636 -0.386214,0.38613 -0.807472,0.695 -1.175464,0.86186 -0.609042,0.27615 -1.539262,0.3998 -2.243856,0.29827 z"
       id="path5" /><path
       style="fill:#d7d7f4;stroke-width:0.154972;stroke-dasharray:none"
       d="m 24.43762,81.709896 c -1.168756,-0.1015 -2.297997,-0.412932 -3.342544,-0.921833 -1.460219,-0.711414 -2.585824,-1.724976 -3.399357,-3.060984 -1.509789,-2.479418 -1.841571,-6.040945 -0.87422,-9.38433 0.250512,-0.865826 0.504855,-1.509835 0.940362,-2.381045 l 0.28956,-0.579247 h 2.955703 2.955702 v 0.29727 c 0,0.368012 0.06638,1.045369 0.126179,1.287666 0.02862,0.11594 0.06529,0.181294 0.101722,0.181294 0.0628,0 0.461625,-0.959737 0.61164,-1.471859 l 0.08623,-0.294371 h 3.823151 3.82315 l 0.269739,0.560256 c 0.722538,1.500729 1.166262,3.014747 1.360899,4.643477 0.08921,0.746535 0.09009,2.287676 0.0017,2.997427 -0.46742,3.753596 -2.486154,6.488668 -5.623642,7.619168 -1.227032,0.442123 -2.724585,0.62708 -4.105985,0.507111 z m 1.791409,-5.366814 c 0.657031,-0.13116 1.214195,-0.459929 1.765265,-1.041638 0.424641,-0.448251 0.607866,-0.735072 0.629373,-0.985222 0.02832,-0.329429 -0.234231,-0.572556 -0.569713,-0.527559 -0.177894,0.02386 -0.256217,0.09056 -0.454397,0.386963 -0.399093,0.596896 -1.025185,1.036321 -1.652352,1.159709 -0.391359,0.07699 -1.214762,0.03029 -1.585552,-0.08994 -0.514197,-0.166729 -0.926817,-0.474062 -1.29407,-0.963864 -0.372165,-0.496356 -0.382271,-0.504728 -0.609295,-0.504728 -0.15825,0 -0.222627,0.01998 -0.315067,0.09776 -0.30221,0.254293 -0.219628,0.637833 0.271295,1.259993 0.472336,0.598603 1.444832,1.160379 2.192967,1.266798 0.297077,0.04226 1.298186,0.0063 1.621546,-0.05827 z m -4.260334,-4.137006 c 0.494288,-0.230666 0.77567,-0.86558 0.669234,-1.510073 -0.111561,-0.675529 -0.526092,-1.097383 -1.078331,-1.097383 -0.450265,0 -0.805147,0.264856 -0.983111,0.733715 -0.123302,0.324847 -0.12285,0.928575 9.35e-4,1.247012 0.103026,0.265038 0.330672,0.529551 0.545319,0.633634 0.232359,0.112672 0.596081,0.109703 0.845957,-0.0069 z m 7.522171,-4.8e-4 c 0.70099,-0.326424 0.916631,-1.427372 0.423129,-2.160263 -0.206231,-0.30627 -0.456119,-0.446709 -0.794845,-0.446709 -0.125759,0 -0.296473,0.02032 -0.379365,0.04515 -0.21635,0.06482 -0.497885,0.334647 -0.634572,0.608182 -0.110519,0.221167 -0.1161,0.254644 -0.115306,0.691647 6.89e-4,0.378041 0.01437,0.489064 0.07738,0.627973 0.271954,0.599483 0.898496,0.878525 1.423575,0.634015 z"
       id="path6" /><path
       style="fill:#d7d7f4;stroke-width:0.154972;stroke-dasharray:none"
       d="m 32.12927,90.692479 v -1.848148 l 0.598239,0.02593 c 0.329031,0.01426 0.645711,0.03612 0.703731,0.04856 0.166538,0.03572 0.461739,0.327314 0.560375,0.553522 0.223361,0.512249 0.08205,1.489493 -0.309689,2.141706 -0.174089,0.289842 -0.489948,0.598943 -0.734105,0.718397 -0.226865,0.110995 -0.55707,0.20705 -0.714097,0.207728 l -0.104454,4.8e-4 z"
       id="path7" /><path
       style="fill:#d7d7f4;stroke-width:0.294942;stroke-dasharray:none"
       d="m 25.081837,64.521297 c 0.186282,-0.902242 0.404727,-1.609731 0.645822,-2.091644 0.403315,-0.806171 1.299022,-1.73389 1.67406,-1.73389 0.27582,0 1.02518,0.34576 1.65832,0.765161 1.095667,0.725784 2.09654,1.791426 2.981682,3.174631 0.203542,0.318075 0.370081,0.602716 0.370087,0.632536 5e-6,0.02982 -1.686447,0.05422 -3.747671,0.05422 h -3.747681 z"
       id="path8" /><path
       style="fill:#d7d7f4;stroke-width:0.294942;stroke-dasharray:none"
       d="m 18.196786,65.2141 c 0.08233,-0.214534 0.802218,-1.240509 1.242884,-1.771326 1.549452,-1.866442 3.30684,-2.897572 5.3098,-3.11547 1.07545,-0.116997 1.075241,-0.117142 0.636808,0.440748 -0.432455,0.550285 -0.993644,1.688344 -1.211993,2.457853 -0.08751,0.308418 -0.172854,0.877222 -0.197937,1.319288 l -0.04409,0.777115 h -2.888495 c -2.535168,0 -2.883417,-0.01324 -2.846973,-0.108208 z"
       id="path9" /><path
       style="fill:#d7d7f4;stroke-width:0.0768861;stroke-dasharray:none"
       d="m 18.53374,65.287603 c -0.322155,-0.02002 -0.352944,-0.03418 -0.298731,-0.137358 0.09281,-0.176635 0.512887,-0.789088 0.842537,-1.228369 1.158582,-1.543891 2.474429,-2.604638 3.922357,-3.161939 0.690123,-0.265625 1.529197,-0.437145 2.336726,-0.477663 0.26182,-0.01314 0.330971,0.0049 0.311822,0.08115 -0.01421,0.05663 -0.08074,0.157125 -0.247412,0.373715 -0.540631,0.702564 -1.140626,1.979137 -1.297554,2.760729 -0.06626,0.330004 -0.117634,0.758318 -0.141275,1.177786 -0.0111,0.196926 -0.02512,0.419527 -0.03116,0.49467 l -0.01098,0.136623 -2.58481,-0.0029 c -1.421645,-0.0016 -2.682329,-0.009 -2.801521,-0.01641 z"
       id="path10" /><path
       style="fill:#d7d7f4;stroke-width:0.0768861;stroke-dasharray:none"
       d="m 18.513168,65.28751 c -0.25236,-0.01596 -0.299786,-0.02736 -0.299786,-0.07206 0,-0.0655 0.315956,-0.546593 0.750543,-1.142815 1.337792,-1.835357 2.907181,-3.025874 4.629581,-3.511936 0.531496,-0.149988 1.415671,-0.285245 1.864651,-0.285245 0.225348,0 0.244668,0.04894 0.09872,0.250105 -0.0434,0.05982 -0.148192,0.203985 -0.232864,0.320357 -0.358131,0.492216 -0.752099,1.252093 -1.016133,1.959895 -0.200926,0.538628 -0.302543,1.095752 -0.346206,1.898117 -0.011,0.202108 -0.02481,0.420469 -0.03069,0.485247 l -0.0107,0.117779 -2.59434,-0.0028 c -1.426887,-0.0015 -2.692637,-0.009 -2.812779,-0.01663 z"
       id="path11" /><path
       style="fill:#d7d7f4;stroke-width:0.0299057;stroke-dasharray:none"
       d="m 19.762395,65.314376 c -0.503926,-0.0028 -0.997041,-0.0088 -1.095811,-0.01325 -0.304415,-0.01378 -0.431828,-0.03048 -0.458628,-0.06009 -0.01255,-0.01387 -0.01224,-0.01608 0.0084,-0.05991 0.06679,-0.141827 0.356294,-0.579571 0.658067,-0.995018 0.474142,-0.652742 0.835742,-1.080647 1.326804,-1.570093 l 0.167629,-0.167078 h 2.041268 c 1.630179,0 2.040493,0.0018 2.037422,0.0092 -0.123306,0.293742 -0.233114,0.606699 -0.291259,0.830104 -0.07192,0.276318 -0.139347,0.711185 -0.171619,1.106805 -0.0084,0.103553 -0.05528,0.884643 -0.05526,0.921727 3e-6,0.0065 -2.86405,0.0049 -4.167009,-0.0024 z"
       id="path12" /><path
       style="fill:#d5fff6;stroke-width:0.0299057;stroke-dasharray:none"
       d="m 19.612133,65.314428 c -1.109551,-0.0074 -1.373403,-0.02256 -1.409564,-0.08085 -0.038,-0.06126 0.770769,-1.226617 1.249733,-1.800754 0.233924,-0.280406 0.467532,-0.536043 0.729753,-0.798567 l 0.185106,-0.185319 h 2.042116 c 1.630744,0 2.041384,0.0018 2.038483,0.0092 -0.002,0.005 -0.02744,0.06853 -0.05655,0.1411 -0.05762,0.143682 -0.09389,0.241461 -0.144076,0.388481 -0.135518,0.396961 -0.221026,0.874243 -0.269856,1.506281 -0.0036,0.04649 -0.0478,0.806552 -0.04786,0.8228 -2.4e-5,0.0066 -3.237074,0.0049 -4.317293,-0.0023 z"
       id="path13" /><path
       style="fill:#aaffcc;stroke-width:0.121854;stroke-dasharray:none"
       d="m 32.112616,94.072829 c 0.0041,-0.525158 0.0041,-0.525097 0.222361,-0.552253 0.22294,-0.02774 0.682172,-0.156284 0.947248,-0.265154 0.280773,-0.115317 0.607687,-0.349384 0.864664,-0.619091 0.359357,-0.377159 0.565253,-0.736135 0.779956,-1.359841 l 0.12462,-0.362017 v -0.746657 c 0,-0.700663 -0.0042,-0.758844 -0.0684,-0.944529 -0.180782,-0.52302 -0.555181,-0.939088 -1.058127,-1.175891 -0.245583,-0.115628 -0.494275,-0.163793 -0.847428,-0.164122 -0.132939,-1.2e-4 -0.405095,-0.009 -0.604792,-0.01975 l -0.363084,-0.01952 v -0.458337 -0.458338 l 0.515193,2.4e-4 c 0.593142,3e-4 1.278275,0.04409 1.480805,0.09463 0.710123,0.177229 1.299277,0.669762 1.646904,1.376816 0.347705,0.707214 0.437287,1.534434 0.271308,2.505312 -0.233068,1.363302 -1.06714,2.568676 -2.172439,3.139541 -0.476457,0.24608 -1.096706,0.409733 -1.552903,0.409733 h -0.188868 z"
       id="path15" /><path
       style="display:inline;fill:url(#linearGradient4);stroke-width:0.394665;stroke-dasharray:none"
       d="m 36.603678,93.017461 c -0.09839,-0.06685 -0.06462,-0.265641 0.160893,-0.947261 0.156974,-0.474458 0.300064,-0.945311 0.317978,-1.046341 0.02368,-0.133575 0.192319,-0.22739 0.618091,-0.343858 0.322037,-0.08809 0.693486,-0.241604 0.825443,-0.341139 0.70424,-0.531209 1.032858,-1.430876 0.916931,-2.51031 -0.08504,-0.791814 -0.169558,-1.034812 -0.937949,-2.696629 -0.897462,-1.94096 -1.08726,-2.591415 -1.030993,-3.533302 0.05226,-0.874725 0.272056,-1.368317 0.83634,-1.878113 0.212897,-0.19234 0.553401,-0.395892 0.756675,-0.452338 0.482089,-0.133869 1.333518,-0.119679 1.820565,0.03034 l 0.386926,0.11918 -0.516668,0.174287 c -1.015028,0.342397 -1.523949,1.098422 -1.502886,2.232605 0.01332,0.717301 0.254754,1.363563 0.957641,2.563388 0.87152,1.487683 1.490489,2.812511 1.604377,3.433972 0.0585,0.319215 0.0887,0.955909 0.06711,1.414878 -0.03275,0.696188 -0.0908,0.939179 -0.35024,1.466184 -0.411229,0.835326 -1.183626,1.608958 -2.015036,2.018261 -0.608246,0.299439 -0.739889,0.326347 -1.724596,0.352496 -0.586346,0.01557 -1.122116,-0.0098 -1.190598,-0.0563 z"
       id="path17" /><path
       style="display:inline;fill:#eeaaff;stroke-width:0.394665;stroke-dasharray:none"
       d="m 32.133439,90.723892 v -1.789535 h 0.659024 c 0.609286,0 0.680467,0.0224 0.943134,0.296794 0.252216,0.263476 0.283926,0.363921 0.282474,0.894767 -0.0021,0.763456 -0.241521,1.386869 -0.700471,1.823817 -0.312732,0.297738 -0.832598,0.563692 -1.101863,0.563692 -0.04526,0 -0.0823,-0.805291 -0.0823,-1.789535 z"
       id="path18" /><path
       style="display:inline;fill:url(#linearGradient6);stroke-width:0.394665;stroke-dasharray:none"
       d="m 36.002705,101.54786 c -1.192205,-0.31898 -2.469212,-1.44371 -3.056301,-2.69187 -0.358418,-0.761997 -0.755237,-2.06874 -0.857342,-2.82327 l -0.06699,-0.495068 0.6685,-0.09922 c 0.367675,-0.05457 0.947732,-0.214201 1.289014,-0.354734 0.341284,-0.140534 0.661846,-0.264867 0.712362,-0.276297 0.05051,-0.01143 0.145204,0.446358 0.210419,1.017306 0.06522,0.570948 0.166235,1.267416 0.224489,1.547706 0.149256,0.718146 0.608171,1.47344 1.088321,1.791188 0.349865,0.23153 0.497416,0.266137 1.134711,0.266137 0.669456,0 0.771635,-0.02714 1.18632,-0.315099 0.496719,-0.344923 0.798895,-0.879807 1.291354,-2.285834 0.305209,-0.87141 0.647917,-1.313707 1.239984,-1.600322 0.520341,-0.251892 1.321719,-0.260008 1.851475,-0.01875 l 0.386926,0.176212 -0.395032,0.06887 c -0.994468,0.173368 -1.38661,0.682533 -1.82322,2.367306 -0.408272,1.575425 -0.607691,1.994243 -1.260284,2.646829 -1.074864,1.07487 -2.420762,1.45453 -3.824701,1.07891 z"
       id="path19" /><g
       id="g23"
       transform="matrix(0.22658693,0,0,0.22658693,4.2413011,45.852654)"><path
         style="display:inline;fill:url(#linearGradient2);stroke-width:6.58311;stroke-dasharray:none"
         d="M 297.69225,370.49963 C 223.81782,354.38184 181.39703,297.61025 181.42716,214.90246 c 0.013,-35.58381 5.87439,-62.78201 20.66853,-95.90623 l 10.86066,-21.402266 47.31913,-2.431903 46.27689,4.168977 1.35023,14.990012 c 1.13625,12.6144 2.22567,17.17986 4.36657,17.17986 1.31265,0 11.23921,-24.18011 11.23921,-27.37758 0,-1.11698 21.00509,-1.66556 63.77432,-1.66556 h 63.77429 l 5.65217,12.40285 c 7.29514,16.00813 14.10968,36.48483 17.88803,53.75098 2.39148,10.92841 2.98357,20.27107 2.9143,45.98498 -0.0798,29.63379 -0.43326,33.54957 -4.32612,47.93057 -14.98434,55.35501 -50.79079,92.64999 -102.0785,106.32213 -18.59255,4.95636 -54.55632,5.76481 -73.41462,1.65035 z m 58.4909,-88.58268 c 4.21597,-1.87354 11.72838,-7.24902 16.69424,-11.94554 13.12415,-12.41226 16.58791,-20.65081 11.0223,-26.21643 -4.73875,-4.73875 -9.25276,-2.99211 -18.02615,6.97498 -10.89751,12.3802 -18.9958,16.30838 -33.59691,16.29663 -19.1537,-0.0154 -27.77278,-4.08399 -38.89541,-18.36038 -4.31669,-5.54066 -6.90285,-7.44674 -10.10369,-7.44674 -9.72684,0 -11.16719,10.37181 -2.93049,21.10225 7.19806,9.37734 15.1088,15.43275 26.36965,20.18513 8.48703,3.58176 11.29811,3.95627 25.66599,3.41941 11.92557,-0.4456 18.13493,-1.49161 23.80047,-4.00931 z m -78.2028,-67.41831 c 5.43165,-3.80447 8.41735,-10.92379 8.41735,-20.07091 0,-14.43103 -6.74585,-22.58911 -18.67876,-22.58911 -12.17383,0 -20.07447,12.46575 -17.74517,27.99861 1.60997,10.73611 8.11745,17.17962 17.35017,17.17962 3.88364,0 8.67903,-1.1332 10.65641,-2.51821 z m 125.63408,0.15378 c 11.18194,-7.83213 11.18194,-32.61725 0,-40.44938 -1.85663,-1.30043 -6.31993,-2.36442 -9.91844,-2.36442 -12.22589,0 -18.55535,8.18929 -18.55535,24.00761 0,8.73615 0.51274,10.18996 5.43443,15.40845 4.63485,4.91438 6.48119,5.76217 12.54904,5.76217 3.91305,0 8.63369,-1.064 10.49032,-2.36443 z"
         id="path20"
         transform="matrix(0.26458333,0,0,0.26458333,5.4838757,59.286112)"
         sodipodi:nodetypes="ssscccsssscssssssssssssssssssssssssssssss" /><path
         style="display:inline;fill:#eeaaff;stroke-width:6.58311;stroke-dasharray:none"
         d="M 326.19544,93.986849 C 333.77327,65.15341 340.2368,45.629375 353.21,33.359865 c 10.63142,-10.05476 13.25774,-10.321012 28.09642,-2.848372 12.25974,6.173903 23.90767,14.919449 35.07631,26.336118 8.35066,8.536113 25.4259,30.736427 29.08881,37.819708 l 6.1814,8.732411 -65.48338,1.04224 -62.35665,-1.38966 z"
         id="path21"
         sodipodi:nodetypes="ssssscccs"
         transform="matrix(0.26458333,0,0,0.26458333,5.4838757,59.286112)" /><path
         id="path22"
         style="display:inline;fill:#eeaaff;stroke-width:6.58311;stroke-dasharray:none"
         sodipodi:type="inkscape:offset"
         inkscape:radius="0"
         inkscape:original="M 248.36914 54.052734 L 240.09961 62.523438 C 231.71841 71.108193 213.78906 95.138566 213.78906 97.787109 C 213.78906 98.603331 234.03059 99.230469 260.34961 99.230469 L 306.91016 99.230469 L 307.98242 86.353516 C 308.57308 79.270948 310.41763 69.105117 312.08008 63.763672 L 315.10156 54.052734 L 281.73633 54.052734 L 248.36914 54.052734 z "
         d="m 248.36914,54.052734 -8.26953,8.470704 c -8.3812,8.584755 -26.31055,32.615128 -26.31055,35.263671 0,0.816222 20.24153,1.44336 46.56055,1.44336 h 46.56055 l 1.07226,-12.876953 c 0.59066,-7.082568 2.43521,-17.248399 4.09766,-22.589844 l 3.02148,-9.710938 h -33.36523 z"
         transform="matrix(0.26458333,0,0,0.26458333,5.4838757,59.286112)" /><path
         style="display:inline;fill:#eeaaff;stroke-width:6.58311;stroke-dasharray:none"
         d="m 247.89735,56.812385 c 0,-0.26974 6.29069,-9.066664 12.28084,-13.604067 20.39321,-15.447403 41.65433,-23.835127 65.48021,-25.832604 9.42601,-0.790242 11.03876,-0.573586 9.88373,1.327781 -0.75913,1.249661 -3.9588,6.282532 -7.11037,11.184159 -3.15157,4.901626 -7.11104,11.980893 -8.79882,15.731704 l -5.84801,11.683463 -32.59637,-0.694829 c -18.49704,-0.394286 -33.29121,0.474133 -33.29121,0.204393 z"
         id="path23"
         transform="matrix(0.26458333,0,0,0.26458333,5.4838757,59.286112)"
         sodipodi:nodetypes="sssssscss" /></g><path
       style="display:inline;fill:url(#linearGradient10);stroke-width:0.17993"
       d="m 22.377904,97.93614 c -0.556301,-0.04783 -1.270857,-0.275915 -1.790921,-0.571661 -0.422555,-0.240296 -1.010153,-0.785986 -1.274468,-1.183574 -0.297134,-0.446954 -0.634968,-1.177646 -0.715811,-1.548212 -0.06323,-0.289852 -0.07444,-0.855663 -0.09061,-4.575431 l -0.01845,-4.244677 h 6.353423 6.353423 l -0.0034,1.20174 c -0.0019,0.660957 -0.02003,2.600829 -0.04031,4.310827 -0.04147,3.49736 -0.03592,3.435899 -0.373525,4.135493 -0.259929,0.538632 -0.409141,0.751783 -0.836469,1.194908 -0.618304,0.641161 -1.164699,0.972481 -1.953776,1.184719 l -0.430781,0.115867 -2.359379,0.0098 c -1.297658,0.0054 -2.566168,-0.008 -2.818912,-0.02976 z"
       id="path14" /><text
       xml:space="preserve"
       style="font-style:normal;font-variant:normal;font-weight:normal;font-stretch:normal;font-size:0.719414px;font-family:'Red Hat Mono';-inkscape-font-specification:'Red Hat Mono';text-align:start;writing-mode:lr-tb;direction:ltr;text-anchor:start;fill:#000000;fill-opacity:1;stroke-width:0.244601"
       x="21.007265"
       y="90.597496"
       id="text14"><tspan
         sodipodi:role="line"
         id="tspan14"
         style="fill:#000000;stroke-width:0.244601"
         x="21.007265"
         y="90.597496" /></text></g></svg>
